<svg xmlns="http://www.w3.org/2000/svg" id="canvas" viewBox="200.823 297.580 943.563 213.804"><path d="M 213.77,313.36 C 213.31 313.84, 213.12 314.28, 212.73 315.87 C 212.35 317.46, 212.03 318.43, 211.84 321.31 C 211.64 324.20, 211.88 326.12, 211.76 330.30 C 211.64 334.48, 211.57 337.01, 211.23 342.21 C 210.90 347.42, 210.59 350.44, 210.08 356.32 C 209.56 362.20, 209.23 365.42, 208.65 371.60 C 208.07 377.78, 207.73 381.10, 207.20 387.21 C 206.66 393.32, 206.42 396.52, 205.97 402.16 C 205.51 407.79, 205.28 410.53, 204.93 415.37 C 204.59 420.21, 204.46 422.49, 204.24 426.36 C 204.02 430.23, 203.78 431.95, 203.83 434.71 C 203.88 437.47, 204.16 438.55, 204.48 440.16 C 204.79 441.78, 205.05 442.27, 205.40 442.78 C 205.76 443.28, 206.03 443.22, 206.27 442.68 C 206.50 442.13, 206.46 441.63, 206.58 440.03 C 206.69 438.44, 206.84 437.41, 206.85 434.69 C 206.85 431.96, 206.59 430.27, 206.60 426.43 C 206.62 422.59, 206.68 420.31, 206.91 415.49 C 207.14 410.66, 207.35 407.92, 207.74 402.29 C 208.14 396.66, 208.37 393.46, 208.89 387.36 C 209.42 381.25, 209.76 377.94, 210.38 371.76 C 210.99 365.59, 211.34 362.38, 211.96 356.50 C 212.58 350.63, 212.93 347.60, 213.46 342.40 C 214.00 337.20, 214.19 334.67, 214.65 330.51 C 215.12 326.34, 215.59 324.47, 215.79 321.58 C 215.99 318.70, 215.81 317.72, 215.66 316.09 C 215.52 314.47, 215.44 314.02, 215.07 313.47 C 214.69 312.93, 214.24 312.88, 213.77 313.36" style="stroke: black; fill: black;"/><path d="M 239.65,328.00 C 239.37 328.30, 239.34 328.18, 239.20 329.17 C 239.07 330.15, 238.87 330.69, 238.98 332.94 C 239.08 335.18, 239.50 336.65, 239.74 340.39 C 239.98 344.13, 240.14 346.68, 240.18 351.65 C 240.23 356.63, 240.13 359.65, 239.97 365.27 C 239.80 370.88, 239.64 374.05, 239.35 379.74 C 239.06 385.42, 238.81 388.36, 238.53 393.70 C 238.26 399.04, 238.19 401.75, 237.97 406.44 C 237.75 411.12, 237.64 413.33, 237.43 417.13 C 237.21 420.93, 236.95 422.78, 236.90 425.43 C 236.85 428.08, 237.08 428.93, 237.18 430.37 C 237.27 431.81, 237.18 432.16, 237.37 432.64 C 237.56 433.12, 237.79 433.19, 238.14 432.77 C 238.50 432.36, 238.78 432.00, 239.14 430.56 C 239.50 429.11, 239.80 428.21, 239.95 425.54 C 240.10 422.87, 239.87 421.01, 239.89 417.20 C 239.91 413.40, 239.94 411.19, 240.05 406.51 C 240.16 401.83, 240.20 399.13, 240.44 393.79 C 240.68 388.46, 240.92 385.53, 241.24 379.84 C 241.55 374.15, 241.73 370.97, 242.01 365.35 C 242.29 359.72, 242.43 356.70, 242.64 351.70 C 242.85 346.69, 242.99 344.14, 243.07 340.32 C 243.15 336.50, 243.30 334.93, 243.04 332.61 C 242.78 330.29, 242.25 329.69, 241.76 328.71 C 241.27 327.72, 241.02 327.83, 240.60 327.69 C 240.17 327.55, 239.93 327.70, 239.65 328.00" style="stroke: black; fill: black;"/><path d="M 210.50,382.11 C 210.95 382.44, 211.25 382.53, 212.45 382.53 C 213.65 382.54, 214.47 382.56, 216.49 382.13 C 218.50 381.70, 219.84 381.36, 222.52 380.38 C 225.21 379.40, 226.85 378.60, 229.91 377.25 C 232.96 375.90, 234.70 375.09, 237.79 373.63 C 240.87 372.18, 242.53 371.39, 245.33 369.96 C 248.13 368.54, 249.52 367.81, 251.80 366.52 C 254.09 365.24, 255.14 364.58, 256.75 363.53 C 258.35 362.49, 259.05 361.87, 259.83 361.29 C 260.62 360.71, 260.61 360.35, 260.66 360.63 C 260.71 360.91, 260.36 361.10, 260.08 362.69 C 259.79 364.27, 259.49 365.49, 259.23 368.55 C 258.96 371.61, 258.99 373.81, 258.75 377.99 C 258.51 382.18, 258.31 384.85, 258.03 389.46 C 257.75 394.07, 257.57 396.75, 257.35 401.06 C 257.13 405.37, 256.95 407.52, 256.94 411.01 C 256.92 414.50, 256.99 416.10, 257.27 418.51 C 257.55 420.93, 257.90 421.74, 258.33 423.09 C 258.76 424.44, 259.02 424.69, 259.41 425.28 C 259.79 425.86, 259.98 425.93, 260.26 426.02 C 260.55 426.11, 260.73 425.97, 260.84 425.72 C 260.96 425.48, 260.86 425.42, 260.84 424.79 C 260.81 424.17, 260.83 423.92, 260.71 422.60 C 260.59 421.29, 260.44 420.54, 260.24 418.22 C 260.04 415.89, 259.80 414.39, 259.72 410.99 C 259.65 407.58, 259.68 405.44, 259.86 401.17 C 260.03 396.91, 260.22 394.23, 260.60 389.65 C 260.99 385.07, 261.26 382.42, 261.78 378.27 C 262.30 374.12, 262.89 372.03, 263.20 368.91 C 263.50 365.80, 263.58 364.54, 263.30 362.69 C 263.01 360.83, 262.63 360.34, 261.77 359.62 C 260.90 358.90, 260.31 358.87, 258.99 359.09 C 257.67 359.32, 256.93 359.86, 255.15 360.75 C 253.38 361.64, 252.40 362.27, 250.13 363.53 C 247.86 364.78, 246.56 365.59, 243.82 367.02 C 241.08 368.45, 239.46 369.29, 236.41 370.67 C 233.36 372.05, 231.63 372.82, 228.57 373.92 C 225.51 375.03, 223.75 375.37, 221.11 376.21 C 218.46 377.04, 217.21 377.42, 215.33 378.10 C 213.46 378.79, 212.76 379.08, 211.73 379.63 C 210.71 380.19, 210.46 380.38, 210.21 380.87 C 209.96 381.37, 210.05 381.78, 210.50 382.11" style="stroke: black; fill: black;"/><path d="M 265.31,328.58 C 265.75 328.25, 265.91 327.84, 265.78 327.59 C 265.66 327.34, 265.20 327.27, 264.68 327.32 C 264.16 327.38, 263.61 327.59, 263.18 327.89 C 262.75 328.19, 262.45 328.56, 262.53 328.83 C 262.60 329.10, 263.00 329.31, 263.55 329.26 C 264.11 329.21, 264.86 328.91, 265.31 328.58" style="stroke: black; fill: black;"/><path d="M 296.57,380.24 C 296.22 380.58, 296.20 380.58, 295.89 381.86 C 295.58 383.14, 295.22 383.91, 295.03 386.64 C 294.84 389.37, 295.19 391.32, 294.94 395.53 C 294.69 399.73, 294.39 402.68, 293.77 407.66 C 293.15 412.64, 292.68 415.67, 291.82 420.41 C 290.97 425.15, 290.40 427.50, 289.50 431.36 C 288.61 435.22, 287.92 436.92, 287.33 439.71 C 286.74 442.50, 286.69 443.63, 286.56 445.32 C 286.42 447.02, 286.47 447.56, 286.66 448.16 C 286.85 448.76, 287.11 448.81, 287.51 448.32 C 287.90 447.84, 288.07 447.35, 288.63 445.76 C 289.19 444.17, 289.64 443.15, 290.30 440.37 C 290.95 437.60, 291.16 435.79, 291.92 431.88 C 292.68 427.97, 293.24 425.59, 294.10 420.82 C 294.97 416.04, 295.46 413.00, 296.23 408.01 C 297.01 403.01, 297.40 400.06, 298.00 395.83 C 298.59 391.61, 299.10 389.68, 299.23 386.88 C 299.36 384.08, 298.94 383.20, 298.62 381.85 C 298.31 380.50, 298.06 380.47, 297.65 380.14 C 297.24 379.82, 296.92 379.90, 296.57 380.24" style="stroke: black; fill: black;"/><path d="M 325.45,311.42 C 325.01 311.99, 324.80 312.53, 324.54 314.31 C 324.27 316.10, 324.07 317.29, 324.12 320.34 C 324.16 323.39, 324.61 325.44, 324.75 329.55 C 324.89 333.66, 324.88 336.12, 324.82 340.90 C 324.76 345.67, 324.66 348.39, 324.44 353.44 C 324.22 358.50, 324.04 361.19, 323.71 366.18 C 323.38 371.17, 323.14 373.75, 322.79 378.40 C 322.44 383.04, 322.26 385.40, 321.97 389.42 C 321.68 393.44, 321.50 395.32, 321.34 398.50 C 321.17 401.69, 321.07 403.10, 321.15 405.33 C 321.24 407.56, 321.48 408.41, 321.76 409.65 C 322.03 410.89, 322.19 411.08, 322.51 411.52 C 322.84 411.96, 323.14 411.86, 323.39 411.83 C 323.64 411.80, 323.86 411.46, 323.78 411.37 C 323.70 411.27, 323.07 411.29, 322.98 411.36 C 322.90 411.42, 323.17 411.71, 323.37 411.68 C 323.56 411.66, 323.80 411.71, 323.97 411.25 C 324.13 410.80, 324.16 410.61, 324.19 409.41 C 324.22 408.22, 324.12 407.44, 324.13 405.28 C 324.13 403.12, 324.17 401.75, 324.22 398.60 C 324.27 395.45, 324.23 393.56, 324.38 389.55 C 324.52 385.54, 324.67 383.19, 324.95 378.54 C 325.24 373.90, 325.47 371.32, 325.79 366.32 C 326.12 361.32, 326.30 358.62, 326.58 353.55 C 326.87 348.48, 327.00 345.77, 327.22 340.97 C 327.45 336.17, 327.57 333.69, 327.72 329.56 C 327.87 325.42, 328.01 323.34, 327.98 320.29 C 327.94 317.25, 327.80 316.11, 327.56 314.34 C 327.32 312.57, 327.19 312.03, 326.77 311.44 C 326.35 310.86, 325.90 310.84, 325.45 311.42" style="stroke: black; fill: black;"/><path d="M 359.15,300.87 C 358.69 301.28, 358.51 301.65, 358.15 302.96 C 357.79 304.28, 357.61 305.28, 357.34 307.45 C 357.06 309.62, 357.00 311.04, 356.77 313.80 C 356.54 316.57, 356.54 318.21, 356.17 321.27 C 355.80 324.34, 355.48 326.04, 354.92 329.11 C 354.36 332.19, 353.95 333.78, 353.35 336.64 C 352.74 339.51, 352.40 340.90, 351.89 343.46 C 351.39 346.01, 351.17 347.25, 350.82 349.40 C 350.46 351.56, 350.20 352.58, 350.11 354.24 C 350.01 355.89, 350.14 356.63, 350.36 357.69 C 350.57 358.75, 350.82 359.19, 351.18 359.54 C 351.54 359.89, 351.87 359.82, 352.16 359.45 C 352.45 359.08, 352.43 358.66, 352.64 357.69 C 352.86 356.72, 352.94 356.15, 353.23 354.61 C 353.53 353.08, 353.71 352.09, 354.12 350.00 C 354.53 347.90, 354.76 346.67, 355.28 344.14 C 355.80 341.61, 356.13 340.23, 356.72 337.35 C 357.32 334.47, 357.66 332.86, 358.27 329.75 C 358.88 326.64, 359.20 324.92, 359.77 321.82 C 360.34 318.73, 360.72 317.09, 361.10 314.27 C 361.47 311.46, 361.60 309.99, 361.64 307.75 C 361.67 305.52, 361.52 304.47, 361.28 303.11 C 361.04 301.74, 360.87 301.37, 360.44 300.92 C 360.02 300.48, 359.61 300.47, 359.15 300.87" style="stroke: black; fill: black;"/><path d="M 378.92,348.75 C 378.47 348.97, 378.24 349.06, 377.81 350.05 C 377.38 351.05, 377.11 351.70, 376.76 353.73 C 376.40 355.76, 376.35 357.10, 376.04 360.19 C 375.73 363.29, 375.67 365.32, 375.21 369.20 C 374.75 373.09, 374.39 375.45, 373.75 379.63 C 373.11 383.81, 372.68 386.14, 372.00 390.12 C 371.32 394.10, 370.88 396.14, 370.34 399.51 C 369.80 402.88, 369.51 404.46, 369.30 406.97 C 369.10 409.48, 369.10 410.54, 369.33 412.06 C 369.57 413.57, 369.82 414.15, 370.48 414.53 C 371.13 414.92, 371.79 414.87, 372.61 413.99 C 373.42 413.10, 373.92 412.33, 374.56 410.10 C 375.19 407.87, 375.13 406.27, 375.76 402.84 C 376.39 399.41, 376.69 397.11, 377.73 392.97 C 378.76 388.82, 379.46 386.24, 380.93 382.09 C 382.39 377.94, 383.31 375.66, 385.05 372.21 C 386.78 368.75, 387.92 367.22, 389.60 364.81 C 391.28 362.41, 392.12 361.48, 393.43 360.18 C 394.74 358.88, 395.28 358.49, 396.13 358.29 C 396.99 358.10, 397.20 358.16, 397.71 359.19 C 398.23 360.21, 398.24 361.07, 398.71 363.42 C 399.18 365.77, 399.64 367.49, 400.06 370.94 C 400.48 374.38, 400.65 376.70, 400.81 380.64 C 400.97 384.58, 400.91 386.91, 400.86 390.63 C 400.81 394.35, 400.58 396.31, 400.55 399.24 C 400.53 402.18, 400.49 403.46, 400.72 405.30 C 400.96 407.14, 401.15 407.79, 401.72 408.46 C 402.29 409.12, 402.79 409.23, 403.58 408.64 C 404.37 408.04, 404.96 407.49, 405.68 405.47 C 406.40 403.46, 406.49 401.90, 407.19 398.56 C 407.90 395.23, 408.16 392.85, 409.21 388.80 C 410.26 384.75, 411.01 382.17, 412.46 378.29 C 413.91 374.42, 414.89 372.35, 416.48 369.42 C 418.07 366.49, 419.05 365.30, 420.41 363.64 C 421.76 361.98, 422.32 361.48, 423.26 361.13 C 424.21 360.78, 424.49 360.92, 425.15 361.89 C 425.80 362.86, 425.94 363.71, 426.54 366.00 C 427.15 368.29, 427.60 369.89, 428.18 373.32 C 428.76 376.75, 429.07 379.08, 429.45 383.13 C 429.83 387.18, 429.91 389.62, 430.10 393.57 C 430.29 397.52, 430.21 399.58, 430.40 402.86 C 430.59 406.14, 430.62 407.67, 431.07 409.96 C 431.52 412.25, 432.06 413.07, 432.66 414.31 C 433.27 415.55, 433.67 415.86, 434.12 416.16 C 434.56 416.46, 434.80 416.31, 434.90 415.82 C 435.00 415.33, 434.79 414.98, 434.62 413.71 C 434.46 412.45, 434.32 411.71, 434.09 409.50 C 433.85 407.29, 433.67 405.87, 433.43 402.66 C 433.19 399.45, 433.11 397.38, 432.90 393.43 C 432.69 389.48, 432.65 387.02, 432.38 382.90 C 432.12 378.77, 432.04 376.42, 431.58 372.82 C 431.12 369.21, 431.03 367.38, 430.09 364.86 C 429.14 362.33, 428.32 361.33, 426.86 360.18 C 425.39 359.04, 424.49 358.83, 422.77 359.14 C 421.06 359.44, 420.04 359.92, 418.27 361.70 C 416.50 363.48, 415.59 364.91, 413.91 368.04 C 412.23 371.16, 411.41 373.33, 409.89 377.32 C 408.37 381.30, 407.62 383.90, 406.32 387.96 C 405.02 392.03, 404.29 394.34, 403.41 397.66 C 402.52 400.97, 402.15 402.49, 401.89 404.56 C 401.63 406.63, 401.89 407.27, 402.11 408.00 C 402.33 408.72, 402.68 408.72, 402.97 408.17 C 403.27 407.62, 403.41 407.04, 403.59 405.26 C 403.77 403.48, 403.84 402.21, 403.88 399.28 C 403.93 396.36, 403.82 394.39, 403.81 390.65 C 403.80 386.90, 403.89 384.57, 403.84 380.56 C 403.79 376.55, 403.83 374.21, 403.56 370.59 C 403.28 366.97, 403.23 365.07, 402.45 362.48 C 401.67 359.88, 400.97 358.87, 399.66 357.62 C 398.35 356.38, 397.50 356.16, 395.89 356.26 C 394.28 356.36, 393.37 356.74, 391.62 358.11 C 389.87 359.47, 388.91 360.50, 387.12 363.09 C 385.34 365.68, 384.41 367.43, 382.69 371.06 C 380.97 374.68, 380.05 377.00, 378.51 381.23 C 376.96 385.45, 376.24 388.04, 374.98 392.20 C 373.71 396.37, 373.06 398.63, 372.17 402.04 C 371.28 405.45, 370.88 407.00, 370.54 409.23 C 370.21 411.46, 370.37 412.23, 370.49 413.20 C 370.61 414.18, 370.89 414.33, 371.17 414.11 C 371.45 413.88, 371.63 413.45, 371.89 412.08 C 372.15 410.71, 372.21 409.70, 372.47 407.27 C 372.74 404.84, 372.79 403.27, 373.22 399.92 C 373.64 396.58, 373.98 394.53, 374.62 390.55 C 375.26 386.58, 375.69 384.25, 376.42 380.07 C 377.15 375.89, 377.55 373.53, 378.26 369.67 C 378.98 365.80, 379.48 363.82, 380.00 360.73 C 380.52 357.64, 380.76 356.27, 380.88 354.21 C 381.00 352.15, 380.77 351.46, 380.60 350.41 C 380.43 349.37, 380.37 349.31, 380.04 348.98 C 379.70 348.64, 379.36 348.54, 378.92 348.75" style="stroke: black; fill: black;"/><path d="M 503.30,315.17 C 502.93 315.68, 502.81 316.03, 502.70 317.54 C 502.59 319.05, 502.45 320.11, 502.74 322.74 C 503.02 325.38, 503.54 327.13, 504.13 330.71 C 504.73 334.29, 505.10 336.60, 505.71 340.65 C 506.31 344.70, 506.55 347.00, 507.16 350.95 C 507.76 354.90, 508.07 356.93, 508.74 360.40 C 509.41 363.88, 509.67 365.59, 510.52 368.32 C 511.38 371.05, 511.89 372.20, 513.03 374.07 C 514.17 375.95, 514.79 376.73, 516.21 377.69 C 517.64 378.66, 518.49 378.90, 520.16 378.88 C 521.83 378.86, 522.73 378.66, 524.57 377.58 C 526.41 376.51, 527.51 375.79, 529.35 373.48 C 531.20 371.18, 531.96 369.56, 533.81 366.06 C 535.66 362.55, 536.67 360.33, 538.60 355.94 C 540.54 351.56, 541.62 348.84, 543.49 344.11 C 545.36 339.39, 546.30 336.67, 547.95 332.33 C 549.60 327.98, 550.53 325.76, 551.75 322.39 C 552.98 319.02, 553.64 317.38, 554.07 315.46 C 554.51 313.53, 554.25 312.79, 553.94 312.76 C 553.63 312.73, 553.02 313.24, 552.53 315.32 C 552.05 317.40, 552.01 319.09, 551.52 323.17 C 551.04 327.24, 550.83 330.07, 550.12 335.71 C 549.42 341.35, 548.95 344.80, 548.00 351.38 C 547.06 357.96, 546.44 361.64, 545.40 368.60 C 544.36 375.57, 543.78 379.34, 542.80 386.21 C 541.82 393.08, 541.32 396.61, 540.50 402.94 C 539.68 409.28, 539.33 412.41, 538.69 417.91 C 538.05 423.41, 537.80 425.99, 537.30 430.45 C 536.80 434.91, 536.54 436.89, 536.20 440.23 C 535.86 443.57, 535.73 444.94, 535.60 447.15 C 535.46 449.35, 535.50 450.06, 535.52 451.26 C 535.54 452.46, 535.55 452.69, 535.68 453.16 C 535.82 453.62, 536.04 453.54, 536.19 453.59 C 536.34 453.64, 536.45 453.40, 536.42 453.41 C 536.38 453.41, 536.00 453.54, 536.00 453.63 C 536.01 453.72, 536.21 453.90, 536.45 453.85 C 536.69 453.80, 536.94 453.86, 537.22 453.39 C 537.50 452.91, 537.60 452.68, 537.83 451.47 C 538.06 450.26, 538.19 449.56, 538.38 447.35 C 538.57 445.14, 538.58 443.77, 538.77 440.43 C 538.96 437.09, 539.00 435.11, 539.33 430.64 C 539.66 426.17, 539.87 423.59, 540.42 418.09 C 540.96 412.59, 541.28 409.47, 542.06 403.14 C 542.83 396.81, 543.32 393.29, 544.30 386.43 C 545.27 379.56, 545.85 375.79, 546.94 368.84 C 548.02 361.88, 548.66 358.21, 549.73 351.65 C 550.80 345.09, 551.36 341.65, 552.31 336.03 C 553.26 330.41, 553.86 327.65, 554.48 323.57 C 555.10 319.48, 555.49 317.80, 555.41 315.58 C 555.33 313.36, 554.79 312.66, 554.06 312.46 C 553.33 312.26, 552.74 312.78, 551.76 314.58 C 550.79 316.38, 550.38 318.08, 549.19 321.47 C 547.99 324.86, 547.35 327.17, 545.79 331.53 C 544.23 335.89, 543.28 338.60, 541.40 343.27 C 539.51 347.95, 538.39 350.65, 536.35 354.91 C 534.32 359.17, 533.21 361.34, 531.21 364.57 C 529.21 367.79, 528.05 368.98, 526.35 371.04 C 524.65 373.09, 523.97 373.80, 522.70 374.85 C 521.43 375.90, 520.98 376.13, 519.98 376.29 C 518.99 376.45, 518.59 376.38, 517.71 375.65 C 516.83 374.93, 516.40 374.32, 515.58 372.66 C 514.77 371.00, 514.45 369.91, 513.64 367.34 C 512.83 364.77, 512.29 363.18, 511.53 359.82 C 510.77 356.46, 510.44 354.45, 509.85 350.54 C 509.26 346.63, 509.03 344.33, 508.58 340.28 C 508.13 336.22, 507.91 333.88, 507.58 330.27 C 507.26 326.65, 507.34 324.82, 506.95 322.20 C 506.57 319.58, 506.15 318.60, 505.66 317.17 C 505.18 315.73, 505.01 315.43, 504.54 315.03 C 504.07 314.63, 503.66 314.67, 503.30 315.17" style="stroke: black; fill: black;"/><path d="M 565.19,373.29 C 564.68 373.75, 564.43 374.16, 563.91 375.80 C 563.38 377.44, 562.95 378.52, 562.56 381.48 C 562.17 384.43, 562.25 386.56, 561.97 390.57 C 561.70 394.59, 561.49 397.15, 561.18 401.55 C 560.86 405.94, 560.62 408.45, 560.40 412.55 C 560.18 416.66, 560.00 418.73, 560.08 422.08 C 560.16 425.42, 560.25 426.91, 560.79 429.28 C 561.33 431.64, 561.76 432.57, 562.78 433.89 C 563.81 435.22, 564.50 435.65, 565.93 435.90 C 567.35 436.15, 568.26 436.07, 569.89 435.13 C 571.52 434.19, 572.48 433.48, 574.07 431.19 C 575.67 428.90, 576.26 427.23, 577.87 423.70 C 579.47 420.17, 580.31 417.92, 582.09 413.54 C 583.86 409.16, 584.87 406.40, 586.74 401.80 C 588.60 397.20, 589.64 394.54, 591.41 390.53 C 593.18 386.53, 594.33 384.59, 595.59 381.78 C 596.86 378.97, 597.34 377.67, 597.73 376.48 C 598.12 375.29, 597.87 375.10, 597.55 375.83 C 597.22 376.57, 596.55 377.54, 596.10 380.16 C 595.66 382.78, 595.68 384.84, 595.31 388.93 C 594.94 393.02, 594.69 395.83, 594.25 400.60 C 593.81 405.38, 593.47 408.22, 593.12 412.81 C 592.76 417.40, 592.51 419.81, 592.47 423.54 C 592.43 427.27, 592.40 428.94, 592.91 431.46 C 593.42 433.98, 594.11 434.81, 595.03 436.14 C 595.95 437.47, 596.59 437.63, 597.50 438.10 C 598.41 438.57, 598.86 438.50, 599.59 438.48 C 600.32 438.46, 600.70 438.31, 601.14 437.99 C 601.57 437.68, 601.71 437.28, 601.77 436.92 C 601.84 436.55, 601.75 436.34, 601.47 436.16 C 601.19 435.98, 600.67 436.02, 600.37 436.01 C 600.06 436.01, 600.04 436.12, 599.94 436.13 C 599.85 436.14, 599.99 436.03, 599.89 436.06 C 599.79 436.10, 599.72 436.25, 599.43 436.30 C 599.14 436.36, 598.92 436.59, 598.44 436.32 C 597.96 436.05, 597.55 436.02, 597.01 434.94 C 596.48 433.87, 596.13 433.21, 595.75 430.93 C 595.38 428.65, 595.17 427.13, 595.14 423.54 C 595.10 419.95, 595.22 417.53, 595.56 413.00 C 595.90 408.46, 596.24 405.62, 596.83 400.88 C 597.43 396.15, 597.93 393.39, 598.53 389.32 C 599.12 385.24, 599.76 383.26, 599.82 380.51 C 599.88 377.76, 599.54 376.57, 598.84 375.55 C 598.13 374.54, 597.48 374.45, 596.29 375.43 C 595.10 376.42, 594.31 377.66, 592.88 380.49 C 591.46 383.32, 590.83 385.49, 589.17 389.58 C 587.50 393.67, 586.46 396.33, 584.58 400.92 C 582.69 405.51, 581.64 408.26, 579.74 412.54 C 577.84 416.82, 576.84 419.02, 575.06 422.31 C 573.28 425.59, 572.22 426.89, 570.83 428.97 C 569.44 431.06, 569.02 431.75, 568.09 432.72 C 567.16 433.70, 566.86 433.85, 566.19 433.83 C 565.52 433.81, 565.24 433.64, 564.74 432.62 C 564.24 431.59, 564.02 430.83, 563.67 428.70 C 563.32 426.58, 563.12 425.19, 562.99 421.99 C 562.87 418.78, 562.86 416.72, 563.04 412.68 C 563.21 408.64, 563.46 406.13, 563.87 401.77 C 564.29 397.41, 564.59 394.85, 565.13 390.89 C 565.66 386.93, 566.20 384.90, 566.55 381.97 C 566.90 379.04, 566.88 377.94, 566.86 376.25 C 566.84 374.55, 566.79 374.09, 566.46 373.50 C 566.12 372.91, 565.70 372.83, 565.19 373.29" style="stroke: black; fill: black;"/><path d="M 638.66,378.32 C 639.23 378.10, 639.58 377.68, 640.03 376.86 C 640.47 376.05, 640.73 375.38, 640.89 374.24 C 641.04 373.09, 641.09 372.29, 640.81 371.13 C 640.52 369.98, 640.26 369.31, 639.48 368.47 C 638.70 367.63, 638.18 367.15, 636.91 366.92 C 635.64 366.69, 634.83 366.55, 633.14 367.34 C 631.45 368.12, 630.30 368.70, 628.48 370.85 C 626.66 372.99, 625.82 374.61, 624.03 378.06 C 622.23 381.52, 621.21 383.75, 619.50 388.10 C 617.79 392.46, 616.86 395.18, 615.48 399.83 C 614.10 404.48, 613.48 407.12, 612.62 411.34 C 611.75 415.56, 611.36 417.63, 611.15 420.93 C 610.94 424.23, 611.04 425.67, 611.58 427.84 C 612.13 430.02, 612.74 430.79, 613.88 431.80 C 615.01 432.81, 615.82 433.05, 617.26 432.89 C 618.71 432.73, 619.60 432.38, 621.11 431.01 C 622.61 429.64, 623.48 428.64, 624.78 426.05 C 626.09 423.46, 626.43 421.68, 627.65 418.08 C 628.87 414.48, 629.55 412.20, 630.87 408.04 C 632.19 403.88, 632.96 401.32, 634.26 397.28 C 635.55 393.24, 636.32 391.02, 637.34 387.82 C 638.35 384.63, 638.88 383.16, 639.31 381.33 C 639.75 379.49, 639.68 378.80, 639.50 378.65 C 639.32 378.50, 638.78 378.89, 638.40 380.58 C 638.03 382.26, 637.82 383.80, 637.62 387.09 C 637.43 390.37, 637.54 392.74, 637.43 397.00 C 637.32 401.25, 637.23 403.98, 637.08 408.36 C 636.93 412.74, 636.82 415.13, 636.69 418.89 C 636.55 422.64, 636.25 424.40, 636.40 427.15 C 636.54 429.91, 636.78 431.06, 637.42 432.67 C 638.06 434.27, 638.54 434.83, 639.59 435.20 C 640.64 435.56, 641.44 435.47, 642.68 434.52 C 643.91 433.56, 644.66 432.79, 645.76 430.43 C 646.86 428.08, 647.12 426.37, 648.19 422.74 C 649.26 419.11, 649.80 416.69, 651.11 412.28 C 652.42 407.87, 653.19 405.13, 654.73 400.68 C 656.27 396.23, 657.23 393.70, 658.79 390.01 C 660.36 386.33, 661.44 384.55, 662.54 382.26 C 663.63 379.96, 663.87 379.05, 664.27 378.52 C 664.66 377.99, 664.50 378.22, 664.52 379.61 C 664.54 381.00, 664.37 382.36, 664.35 385.46 C 664.33 388.57, 664.52 390.92, 664.42 395.14 C 664.31 399.35, 664.14 402.11, 663.82 406.55 C 663.50 410.99, 663.18 413.48, 662.82 417.33 C 662.46 421.18, 662.03 423.07, 662.02 425.78 C 662.01 428.49, 662.22 429.58, 662.77 430.86 C 663.32 432.13, 663.84 432.42, 664.77 432.14 C 665.70 431.87, 666.41 431.38, 667.41 429.48 C 668.41 427.58, 668.76 426.04, 669.77 422.66 C 670.78 419.28, 671.19 416.89, 672.48 412.56 C 673.78 408.23, 674.55 405.44, 676.24 401.02 C 677.92 396.59, 678.99 394.10, 680.91 390.44 C 682.84 386.78, 684.11 385.12, 685.86 382.72 C 687.61 380.32, 688.46 379.39, 689.67 378.44 C 690.87 377.48, 691.21 377.32, 691.87 377.93 C 692.53 378.55, 692.52 379.30, 692.94 381.51 C 693.37 383.72, 693.69 385.43, 694.00 389.00 C 694.31 392.57, 694.45 394.97, 694.48 399.36 C 694.50 403.75, 694.32 406.53, 694.11 410.93 C 693.90 415.33, 693.64 417.64, 693.44 421.36 C 693.24 425.07, 692.95 426.84, 693.09 429.50 C 693.22 432.16, 693.61 433.16, 694.11 434.66 C 694.61 436.16, 694.98 436.44, 695.58 437.00 C 696.18 437.55, 696.52 437.48, 697.11 437.44 C 697.69 437.40, 698.22 437.15, 698.51 436.79 C 698.80 436.44, 698.92 435.97, 698.56 435.67 C 698.20 435.37, 697.13 435.26, 696.70 435.30 C 696.27 435.34, 696.38 435.65, 696.42 435.85 C 696.46 436.05, 696.81 436.26, 696.90 436.31 C 697.00 436.36, 696.97 436.54, 696.89 436.10 C 696.81 435.66, 696.63 435.46, 696.49 434.12 C 696.35 432.78, 696.25 431.91, 696.18 429.38 C 696.12 426.85, 696.08 425.13, 696.18 421.47 C 696.28 417.81, 696.47 415.47, 696.69 411.06 C 696.90 406.64, 697.14 403.85, 697.26 399.39 C 697.38 394.93, 697.52 392.52, 697.30 388.76 C 697.08 385.01, 697.06 383.09, 696.18 380.61 C 695.30 378.13, 694.44 377.19, 692.90 376.37 C 691.36 375.54, 690.35 375.56, 688.47 376.48 C 686.59 377.40, 685.48 378.41, 683.52 380.97 C 681.57 383.54, 680.60 385.47, 678.69 389.30 C 676.77 393.13, 675.72 395.65, 673.95 400.13 C 672.17 404.61, 671.35 407.40, 669.82 411.69 C 668.29 415.97, 667.41 418.23, 666.29 421.55 C 665.17 424.87, 664.64 426.32, 664.21 428.29 C 663.77 430.26, 664.03 430.92, 664.11 431.38 C 664.19 431.85, 664.40 431.70, 664.62 430.60 C 664.85 429.51, 665.05 428.51, 665.24 425.90 C 665.43 423.29, 665.32 421.37, 665.57 417.55 C 665.82 413.72, 666.10 411.21, 666.49 406.76 C 666.88 402.31, 667.21 399.56, 667.51 395.29 C 667.82 391.01, 668.19 388.64, 668.02 385.38 C 667.85 382.12, 667.52 380.58, 666.65 378.98 C 665.78 377.37, 665.02 376.98, 663.66 377.34 C 662.31 377.70, 661.35 378.46, 659.89 380.80 C 658.43 383.13, 657.86 385.21, 656.37 389.02 C 654.88 392.84, 653.98 395.39, 652.42 399.88 C 650.86 404.37, 650.05 407.11, 648.57 411.47 C 647.09 415.83, 646.33 418.21, 645.03 421.69 C 643.73 425.17, 642.95 426.62, 642.09 428.86 C 641.22 431.10, 641.10 431.87, 640.71 432.89 C 640.31 433.92, 640.30 434.14, 640.11 433.98 C 639.93 433.81, 639.87 433.47, 639.76 432.08 C 639.66 430.69, 639.63 429.66, 639.57 427.03 C 639.51 424.40, 639.41 422.66, 639.45 418.95 C 639.49 415.24, 639.55 412.83, 639.76 408.47 C 639.97 404.11, 640.18 401.40, 640.51 397.16 C 640.84 392.92, 641.29 390.60, 641.42 387.28 C 641.55 383.95, 641.57 382.39, 641.17 380.55 C 640.77 378.72, 640.27 378.16, 639.41 378.12 C 638.56 378.08, 637.88 378.61, 636.89 380.37 C 635.90 382.12, 635.49 383.68, 634.46 386.91 C 633.42 390.13, 632.94 392.43, 631.71 396.48 C 630.47 400.54, 629.68 403.09, 628.27 407.18 C 626.86 411.28, 626.08 413.55, 624.66 416.95 C 623.23 420.36, 622.36 421.83, 621.14 424.19 C 619.93 426.56, 619.46 427.47, 618.59 428.78 C 617.71 430.10, 617.43 430.46, 616.78 430.78 C 616.13 431.10, 615.86 431.07, 615.34 430.38 C 614.83 429.69, 614.48 429.17, 614.21 427.31 C 613.94 425.45, 613.83 424.19, 613.99 421.09 C 614.15 417.99, 614.27 415.93, 615.03 411.81 C 615.78 407.70, 616.39 405.06, 617.76 400.51 C 619.14 395.97, 620.09 393.27, 621.90 389.09 C 623.71 384.92, 624.86 382.76, 626.80 379.64 C 628.73 376.52, 629.96 375.37, 631.58 373.51 C 633.20 371.65, 633.87 371.14, 634.89 370.34 C 635.91 369.55, 636.21 369.62, 636.68 369.55 C 637.15 369.48, 637.21 369.62, 637.25 369.98 C 637.29 370.35, 637.04 370.63, 636.89 371.39 C 636.73 372.15, 636.52 372.82, 636.46 373.79 C 636.40 374.76, 636.44 375.40, 636.59 376.24 C 636.74 377.08, 636.79 377.56, 637.20 377.97 C 637.61 378.39, 638.10 378.54, 638.66 378.32" style="stroke: black; fill: black;"/><path d="M 718.29,345.11 C 717.94 345.51, 717.94 345.64, 717.71 346.95 C 717.48 348.25, 717.16 349.02, 717.13 351.63 C 717.09 354.25, 717.56 356.04, 717.55 360.04 C 717.53 364.03, 717.40 366.64, 717.05 371.60 C 716.70 376.56, 716.36 379.52, 715.79 384.84 C 715.22 390.15, 714.83 393.05, 714.20 398.17 C 713.57 403.28, 713.17 405.90, 712.63 410.40 C 712.08 414.90, 711.81 417.02, 711.48 420.65 C 711.15 424.28, 710.93 425.90, 710.96 428.54 C 711.00 431.18, 711.26 432.23, 711.66 433.83 C 712.06 435.43, 712.44 435.82, 712.96 436.52 C 713.49 437.22, 713.87 437.25, 714.29 437.33 C 714.72 437.41, 714.99 437.10, 715.08 436.92 C 715.17 436.73, 714.82 436.48, 714.75 436.39 C 714.68 436.31, 714.72 436.64, 714.71 436.50 C 714.70 436.35, 714.80 436.32, 714.69 435.69 C 714.59 435.07, 714.32 434.82, 714.18 433.38 C 714.04 431.94, 714.01 431.01, 713.98 428.50 C 713.95 425.99, 713.87 424.40, 714.03 420.83 C 714.20 417.26, 714.36 415.12, 714.81 410.64 C 715.25 406.16, 715.62 403.53, 716.23 398.42 C 716.85 393.30, 717.24 390.39, 717.89 385.08 C 718.53 379.76, 718.91 376.80, 719.47 371.82 C 720.02 366.85, 720.31 364.22, 720.67 360.18 C 721.03 356.15, 721.30 354.31, 721.26 351.63 C 721.23 348.96, 720.85 348.15, 720.49 346.81 C 720.13 345.48, 719.89 345.31, 719.45 344.97 C 719.01 344.63, 718.64 344.72, 718.29 345.11" style="stroke: black; fill: black;"/><path d="M 738.54,377.81 C 737.95 377.79, 737.51 377.84, 736.43 378.61 C 735.36 379.37, 734.62 379.94, 733.15 381.64 C 731.68 383.34, 730.79 384.55, 729.08 387.13 C 727.36 389.71, 726.40 391.50, 724.57 394.55 C 722.73 397.61, 721.58 399.34, 719.90 402.40 C 718.22 405.46, 717.22 407.04, 716.18 409.85 C 715.13 412.66, 714.81 414.05, 714.68 416.44 C 714.56 418.83, 714.74 419.96, 715.55 421.81 C 716.36 423.66, 717.08 424.46, 718.73 425.69 C 720.37 426.91, 721.49 427.36, 723.77 427.92 C 726.06 428.48, 727.43 428.61, 730.14 428.49 C 732.85 428.37, 734.38 428.11, 737.32 427.32 C 740.26 426.54, 742.07 425.80, 744.83 424.55 C 747.59 423.31, 749.11 422.46, 751.11 421.09 C 753.10 419.72, 754.21 418.60, 754.81 417.69 C 755.41 416.79, 755.15 416.45, 754.11 416.57 C 753.06 416.68, 751.74 417.40, 749.58 418.28 C 747.42 419.17, 745.96 419.93, 743.31 421.00 C 740.66 422.06, 738.99 422.86, 736.31 423.60 C 733.63 424.33, 732.29 424.50, 729.93 424.66 C 727.57 424.82, 726.40 424.71, 724.50 424.41 C 722.59 424.11, 721.70 423.90, 720.41 423.17 C 719.11 422.43, 718.58 422.03, 718.03 420.73 C 717.49 419.44, 717.40 418.64, 717.67 416.71 C 717.93 414.77, 718.34 413.62, 719.35 411.06 C 720.36 408.51, 721.11 406.89, 722.73 403.95 C 724.35 401.01, 725.50 399.27, 727.44 396.38 C 729.38 393.48, 730.62 391.91, 732.42 389.48 C 734.23 387.05, 735.20 386.00, 736.45 384.22 C 737.70 382.45, 738.07 381.70, 738.66 380.61 C 739.25 379.51, 739.43 379.30, 739.41 378.75 C 739.39 378.19, 739.14 377.84, 738.54 377.81" style="stroke: black; fill: black;"/><path d="M 778.66,379.08 C 778.64 378.46, 778.37 377.85, 777.61 377.22 C 776.85 376.60, 776.22 376.15, 774.87 375.96 C 773.53 375.77, 772.54 375.65, 770.87 376.27 C 769.21 376.89, 768.30 377.35, 766.54 379.07 C 764.78 380.78, 763.83 381.93, 762.07 384.85 C 760.31 387.76, 759.38 389.77, 757.75 393.66 C 756.12 397.54, 755.19 400.02, 753.91 404.25 C 752.63 408.48, 752.05 410.92, 751.37 414.79 C 750.68 418.67, 750.35 420.64, 750.48 423.62 C 750.60 426.61, 751.06 427.86, 752.00 429.72 C 752.94 431.58, 753.70 432.21, 755.19 432.94 C 756.67 433.66, 757.63 433.76, 759.41 433.33 C 761.19 432.91, 762.25 432.43, 764.07 430.82 C 765.90 429.20, 766.83 428.03, 768.54 425.26 C 770.25 422.48, 770.99 420.65, 772.62 416.95 C 774.25 413.24, 775.11 410.91, 776.69 406.73 C 778.27 402.55, 779.09 400.04, 780.52 396.06 C 781.95 392.08, 782.86 389.92, 783.83 386.82 C 784.80 383.71, 785.20 382.11, 785.39 380.54 C 785.58 378.97, 785.25 378.54, 784.79 378.97 C 784.33 379.39, 783.66 380.29, 783.09 382.65 C 782.52 385.02, 782.38 387.05, 781.95 390.79 C 781.53 394.52, 781.33 397.13, 780.98 401.32 C 780.63 405.51, 780.43 407.97, 780.21 411.74 C 779.98 415.51, 779.71 417.30, 779.85 420.18 C 780.00 423.06, 780.25 424.29, 780.93 426.14 C 781.61 427.99, 782.14 428.66, 783.25 429.43 C 784.36 430.19, 785.11 430.34, 786.49 429.96 C 787.86 429.58, 788.72 429.15, 790.12 427.53 C 791.52 425.91, 792.20 424.71, 793.49 421.86 C 794.77 419.00, 795.19 417.06, 796.54 413.27 C 797.89 409.47, 798.68 407.06, 800.23 402.89 C 801.78 398.72, 802.67 396.23, 804.29 392.41 C 805.90 388.58, 806.94 386.62, 808.31 383.76 C 809.69 380.90, 810.39 379.56, 811.16 378.12 C 811.94 376.69, 812.01 376.30, 812.19 376.57 C 812.38 376.84, 812.12 377.49, 812.09 379.47 C 812.06 381.45, 812.10 383.11, 812.06 386.47 C 812.01 389.84, 812.07 392.27, 811.88 396.32 C 811.69 400.37, 811.43 402.83, 811.09 406.72 C 810.75 410.61, 810.39 412.63, 810.18 415.75 C 809.98 418.87, 809.90 420.24, 810.06 422.32 C 810.22 424.40, 810.37 425.20, 811.00 426.16 C 811.63 427.11, 812.21 427.39, 813.20 427.09 C 814.19 426.79, 814.91 426.36, 815.93 424.65 C 816.95 422.93, 817.27 421.63, 818.29 418.52 C 819.30 415.40, 819.69 413.18, 821.02 409.08 C 822.35 404.98, 823.23 402.31, 824.92 398.02 C 826.62 393.73, 827.66 391.23, 829.51 387.62 C 831.36 384.01, 832.56 382.33, 834.18 379.96 C 835.80 377.59, 836.46 376.77, 837.60 375.76 C 838.74 374.75, 839.15 374.63, 839.88 374.90 C 840.61 375.17, 840.75 375.55, 841.25 377.12 C 841.75 378.68, 841.92 379.88, 842.38 382.73 C 842.84 385.59, 843.26 387.58, 843.54 391.39 C 843.82 395.20, 843.80 397.66, 843.78 401.78 C 843.76 405.91, 843.61 408.28, 843.45 412.00 C 843.29 415.72, 842.93 417.54, 842.98 420.38 C 843.03 423.23, 843.19 424.40, 843.68 426.22 C 844.18 428.03, 844.66 428.59, 845.45 429.47 C 846.24 430.34, 846.86 430.46, 847.63 430.59 C 848.39 430.72, 848.99 430.44, 849.29 430.11 C 849.60 429.78, 849.39 429.19, 849.14 428.93 C 848.88 428.68, 848.44 428.97, 848.03 428.83 C 847.63 428.68, 847.45 428.83, 847.10 428.21 C 846.75 427.59, 846.45 427.28, 846.28 425.71 C 846.11 424.14, 846.26 423.09, 846.27 420.36 C 846.28 417.64, 846.25 415.80, 846.32 412.09 C 846.39 408.38, 846.53 405.99, 846.61 401.82 C 846.69 397.65, 846.80 395.18, 846.72 391.24 C 846.64 387.29, 846.74 385.18, 846.19 382.09 C 845.63 378.99, 845.11 377.59, 843.96 375.79 C 842.80 373.99, 841.95 373.48, 840.41 373.09 C 838.86 372.69, 837.97 372.80, 836.23 373.83 C 834.49 374.86, 833.52 375.71, 831.71 378.24 C 829.90 380.76, 829.02 382.69, 827.18 386.46 C 825.35 390.22, 824.33 392.73, 822.54 397.05 C 820.76 401.38, 819.84 404.05, 818.25 408.08 C 816.67 412.12, 815.72 414.21, 814.62 417.25 C 813.51 420.29, 813.16 421.53, 812.71 423.28 C 812.26 425.04, 812.37 425.53, 812.36 426.01 C 812.34 426.49, 812.50 426.42, 812.63 425.68 C 812.75 424.94, 812.84 424.25, 812.98 422.30 C 813.13 420.36, 813.14 419.02, 813.34 415.96 C 813.54 412.89, 813.65 410.85, 813.98 406.97 C 814.31 403.08, 814.64 400.62, 814.99 396.53 C 815.35 392.44, 815.73 390.02, 815.77 386.52 C 815.82 383.02, 815.83 381.24, 815.22 379.04 C 814.62 376.84, 813.95 376.01, 812.76 375.53 C 811.58 375.06, 810.73 375.27, 809.29 376.65 C 807.85 378.02, 807.07 379.46, 805.58 382.42 C 804.09 385.37, 803.42 387.50, 801.85 391.41 C 800.29 395.31, 799.38 397.79, 797.76 401.94 C 796.13 406.09, 795.27 408.51, 793.71 412.16 C 792.15 415.81, 791.25 417.54, 789.95 420.20 C 788.65 422.86, 788.10 423.90, 787.22 425.44 C 786.34 426.99, 786.10 427.42, 785.55 427.92 C 785.00 428.42, 784.88 428.46, 784.46 427.96 C 784.05 427.46, 783.76 427.01, 783.49 425.43 C 783.22 423.85, 783.19 422.76, 783.12 420.05 C 783.04 417.35, 782.93 415.58, 783.10 411.89 C 783.28 408.21, 783.50 405.75, 783.98 401.62 C 784.47 397.49, 785.01 394.95, 785.54 391.24 C 786.07 387.53, 786.60 385.56, 786.61 383.08 C 786.63 380.59, 786.24 379.49, 785.60 378.83 C 784.95 378.17, 784.33 378.37, 783.38 379.77 C 782.44 381.17, 781.93 382.75, 780.86 385.84 C 779.79 388.92, 779.36 391.21, 778.03 395.20 C 776.71 399.19, 775.86 401.68, 774.25 405.78 C 772.63 409.88, 771.70 412.20, 769.95 415.70 C 768.20 419.20, 767.17 420.80, 765.49 423.30 C 763.81 425.79, 762.94 426.71, 761.54 428.18 C 760.15 429.66, 759.58 430.13, 758.50 430.68 C 757.43 431.23, 756.98 431.33, 756.15 430.94 C 755.31 430.55, 754.84 430.19, 754.34 428.71 C 753.83 427.22, 753.67 426.22, 753.62 423.52 C 753.57 420.83, 753.50 418.94, 754.07 415.24 C 754.64 411.54, 755.19 409.11, 756.46 405.04 C 757.74 400.96, 758.71 398.50, 760.43 394.85 C 762.15 391.19, 763.32 389.37, 765.08 386.76 C 766.84 384.14, 767.80 383.21, 769.21 381.76 C 770.63 380.31, 771.14 379.98, 772.17 379.53 C 773.20 379.08, 773.60 379.40, 774.37 379.51 C 775.15 379.62, 775.37 379.91, 776.03 380.07 C 776.70 380.23, 777.16 380.52, 777.69 380.32 C 778.21 380.12, 778.67 379.69, 778.66 379.08" style="stroke: black; fill: black;"/><path d="M 885.53,382.99 C 885.97 382.47, 886.18 381.73, 886.14 380.61 C 886.09 379.48, 886.01 378.60, 885.30 377.38 C 884.60 376.17, 883.97 375.26, 882.62 374.53 C 881.27 373.80, 880.38 373.50, 878.56 373.73 C 876.74 373.97, 875.62 374.23, 873.53 375.70 C 871.44 377.18, 870.28 378.34, 868.10 381.11 C 865.93 383.89, 864.67 385.82, 862.66 389.56 C 860.64 393.29, 859.59 395.74, 858.02 399.79 C 856.45 403.85, 855.71 406.20, 854.83 409.83 C 853.96 413.45, 853.55 415.24, 853.64 417.92 C 853.74 420.60, 854.23 421.73, 855.30 423.23 C 856.37 424.72, 857.29 425.14, 858.99 425.38 C 860.70 425.61, 861.79 425.40, 863.82 424.41 C 865.84 423.42, 867.08 422.60, 869.10 420.42 C 871.11 418.25, 872.00 416.58, 873.89 413.54 C 875.78 410.49, 876.74 408.58, 878.54 405.19 C 880.35 401.79, 881.32 399.72, 882.92 396.55 C 884.52 393.38, 885.54 391.71, 886.54 389.34 C 887.53 386.96, 887.70 385.70, 887.89 384.66 C 888.07 383.62, 887.74 383.37, 887.45 384.13 C 887.16 384.90, 886.60 385.85, 886.43 388.49 C 886.25 391.12, 886.56 393.05, 886.58 397.32 C 886.60 401.59, 886.62 404.39, 886.53 409.83 C 886.44 415.27, 886.31 418.52, 886.12 424.53 C 885.93 430.54, 885.87 433.85, 885.59 439.88 C 885.31 445.90, 885.18 449.03, 884.71 454.66 C 884.25 460.29, 883.96 463.11, 883.25 468.05 C 882.54 472.98, 882.12 475.32, 881.16 479.35 C 880.21 483.38, 879.61 485.20, 878.48 488.19 C 877.35 491.19, 876.73 492.40, 875.53 494.31 C 874.34 496.22, 873.82 496.85, 872.51 497.73 C 871.19 498.61, 870.50 498.72, 868.97 498.71 C 867.44 498.70, 866.62 498.43, 864.87 497.67 C 863.12 496.92, 862.12 496.34, 860.21 494.93 C 858.31 493.51, 857.18 492.61, 855.33 490.62 C 853.48 488.62, 852.58 487.13, 850.96 484.95 C 849.34 482.78, 848.52 481.45, 847.23 479.74 C 845.94 478.03, 845.28 476.97, 844.51 476.41 C 843.74 475.86, 843.38 476.01, 843.39 476.98 C 843.40 477.95, 843.70 479.21, 844.56 481.26 C 845.41 483.32, 846.08 484.84, 847.66 487.25 C 849.24 489.67, 850.39 491.16, 852.45 493.33 C 854.52 495.49, 855.75 496.55, 857.99 498.07 C 860.23 499.59, 861.44 500.23, 863.66 500.94 C 865.89 501.65, 867.06 501.84, 869.12 501.64 C 871.18 501.44, 872.21 501.12, 873.98 499.96 C 875.75 498.80, 876.55 498.03, 877.96 495.85 C 879.36 493.68, 879.93 492.30, 881.00 489.09 C 882.08 485.88, 882.50 483.98, 883.33 479.82 C 884.16 475.66, 884.53 473.31, 885.17 468.31 C 885.80 463.30, 886.06 460.47, 886.49 454.80 C 886.93 449.13, 887.05 446.00, 887.35 439.96 C 887.65 433.92, 887.72 430.61, 888.01 424.60 C 888.29 418.59, 888.45 415.35, 888.76 409.91 C 889.08 404.48, 889.29 401.70, 889.58 397.41 C 889.86 393.13, 890.33 391.24, 890.19 388.51 C 890.04 385.78, 889.62 384.73, 888.86 383.76 C 888.11 382.78, 887.52 382.83, 886.42 383.65 C 885.32 384.46, 884.63 385.51, 883.37 387.81 C 882.11 390.12, 881.61 391.99, 880.11 395.18 C 878.61 398.37, 877.68 400.45, 875.87 403.75 C 874.07 407.05, 873.04 408.91, 871.09 411.69 C 869.14 414.48, 867.93 415.71, 866.13 417.67 C 864.32 419.64, 863.46 420.42, 862.06 421.50 C 860.65 422.58, 860.08 422.97, 859.10 423.08 C 858.12 423.20, 857.65 423.11, 857.16 422.08 C 856.66 421.04, 856.55 420.24, 856.64 417.92 C 856.73 415.60, 856.83 413.91, 857.61 410.48 C 858.39 407.05, 859.03 404.67, 860.55 400.77 C 862.06 396.87, 863.14 394.47, 865.19 390.98 C 867.25 387.50, 868.70 385.80, 870.82 383.35 C 872.94 380.90, 874.12 380.06, 875.79 378.75 C 877.45 377.43, 878.12 377.10, 879.14 376.79 C 880.16 376.49, 880.35 376.73, 880.87 377.22 C 881.40 377.71, 881.40 378.38, 881.77 379.23 C 882.14 380.07, 882.30 380.66, 882.73 381.46 C 883.17 382.26, 883.39 382.92, 883.95 383.22 C 884.51 383.53, 885.09 383.52, 885.53 382.99" style="stroke: black; fill: black;"/><path d="M 995.82,345.01 C 995.79 344.38, 995.51 343.85, 994.75 343.08 C 993.99 342.31, 993.44 341.75, 992.02 341.16 C 990.61 340.58, 989.62 340.19, 987.67 340.14 C 985.73 340.09, 984.65 340.12, 982.28 340.90 C 979.92 341.69, 978.55 342.21, 975.86 344.08 C 973.17 345.95, 971.77 347.16, 968.82 350.25 C 965.87 353.33, 964.13 355.24, 961.11 359.50 C 958.09 363.75, 956.41 366.39, 953.71 371.52 C 951.00 376.65, 949.62 379.68, 947.58 385.16 C 945.54 390.64, 944.64 393.67, 943.50 398.91 C 942.35 404.14, 942.03 406.83, 941.86 411.33 C 941.69 415.83, 941.86 417.88, 942.63 421.41 C 943.40 424.93, 944.03 426.52, 945.73 428.96 C 947.43 431.41, 948.66 432.34, 951.13 433.64 C 953.61 434.95, 955.14 435.34, 958.09 435.48 C 961.04 435.63, 962.75 435.34, 965.88 434.35 C 969.01 433.37, 970.65 432.52, 973.74 430.54 C 976.82 428.56, 978.45 427.28, 981.29 424.47 C 984.14 421.65, 985.59 419.95, 987.97 416.45 C 990.36 412.95, 991.45 410.83, 993.22 406.97 C 994.98 403.12, 995.72 400.89, 996.82 397.18 C 997.91 393.47, 998.31 391.53, 998.70 388.42 C 999.09 385.30, 999.02 383.86, 998.76 381.60 C 998.51 379.35, 998.15 378.48, 997.43 377.15 C 996.71 375.82, 996.15 375.38, 995.18 374.96 C 994.21 374.54, 993.45 374.57, 992.56 375.04 C 991.66 375.50, 991.10 376.10, 990.70 377.29 C 990.31 378.48, 990.31 379.36, 990.57 380.98 C 990.84 382.60, 991.24 383.56, 992.04 385.40 C 992.84 387.24, 993.46 388.24, 994.57 390.17 C 995.68 392.09, 996.38 393.11, 997.58 395.04 C 998.79 396.97, 999.51 397.86, 1000.58 399.83 C 1001.65 401.80, 1002.13 402.79, 1002.92 404.90 C 1003.72 407.00, 1004.10 408.08, 1004.56 410.34 C 1005.01 412.59, 1005.12 413.76, 1005.19 416.18 C 1005.25 418.61, 1005.15 419.89, 1004.87 422.48 C 1004.60 425.07, 1004.32 426.47, 1003.80 429.14 C 1003.27 431.82, 1002.93 433.22, 1002.25 435.85 C 1001.57 438.49, 1001.12 439.85, 1000.40 442.33 C 999.67 444.81, 999.35 446.04, 998.63 448.24 C 997.91 450.43, 997.55 451.42, 996.81 453.31 C 996.07 455.19, 995.70 456.08, 994.95 457.66 C 994.20 459.24, 993.84 459.87, 993.06 461.20 C 992.29 462.52, 991.88 463.15, 991.08 464.27 C 990.28 465.40, 989.90 465.90, 989.06 466.83 C 988.22 467.76, 987.81 468.20, 986.90 468.93 C 985.99 469.67, 985.54 469.96, 984.51 470.49 C 983.47 471.02, 982.95 471.26, 981.73 471.59 C 980.51 471.93, 979.84 472.04, 978.43 472.17 C 977.01 472.31, 976.24 472.32, 974.66 472.27 C 973.09 472.21, 972.20 472.17, 970.55 471.91 C 968.91 471.65, 968.03 471.44, 966.43 470.98 C 964.82 470.52, 964.00 470.28, 962.52 469.62 C 961.04 468.95, 960.30 468.56, 959.04 467.66 C 957.78 466.76, 957.18 466.24, 956.21 465.12 C 955.24 464.00, 954.73 463.39, 954.20 462.06 C 953.67 460.72, 953.51 460.00, 953.55 458.45 C 953.59 456.89, 953.73 456.05, 954.38 454.29 C 955.03 452.54, 955.49 451.65, 956.79 449.67 C 958.09 447.69, 958.99 446.61, 960.88 444.39 C 962.78 442.17, 963.92 440.93, 966.28 438.56 C 968.64 436.19, 970.02 434.91, 972.67 432.52 C 975.33 430.13, 976.82 428.87, 979.55 426.60 C 982.28 424.32, 983.69 423.18, 986.33 421.14 C 988.97 419.11, 990.30 418.19, 992.75 416.44 C 995.20 414.70, 996.44 413.93, 998.59 412.42 C 1000.74 410.91, 1001.73 410.17, 1003.51 408.91 C 1005.30 407.65, 1006.08 407.14, 1007.52 406.12 C 1008.95 405.09, 1009.60 404.70, 1010.69 403.77 C 1011.78 402.85, 1012.65 402.18, 1012.94 401.48 C 1013.24 400.79, 1012.94 400.31, 1012.18 400.30 C 1011.42 400.29, 1010.42 400.79, 1009.14 401.43 C 1007.85 402.07, 1007.25 402.56, 1005.76 403.52 C 1004.26 404.48, 1003.48 405.00, 1001.66 406.23 C 999.84 407.45, 998.81 408.13, 996.65 409.66 C 994.49 411.18, 993.29 412.03, 990.86 413.86 C 988.43 415.69, 987.12 416.69, 984.49 418.79 C 981.85 420.89, 980.44 422.05, 977.68 424.35 C 974.92 426.65, 973.42 427.90, 970.69 430.28 C 967.96 432.65, 966.54 433.90, 964.03 436.24 C 961.52 438.58, 960.23 439.70, 958.16 441.98 C 956.08 444.26, 955.07 445.39, 953.64 447.62 C 952.21 449.85, 951.72 450.96, 951.01 453.12 C 950.30 455.28, 950.10 456.38, 950.10 458.41 C 950.10 460.45, 950.33 461.52, 951.02 463.31 C 951.71 465.10, 952.36 465.93, 953.55 467.37 C 954.74 468.81, 955.48 469.40, 956.98 470.50 C 958.47 471.60, 959.34 472.06, 961.02 472.85 C 962.70 473.65, 963.59 473.93, 965.38 474.49 C 967.17 475.04, 968.11 475.32, 969.95 475.62 C 971.79 475.93, 972.78 475.99, 974.56 476.03 C 976.33 476.07, 977.19 476.05, 978.83 475.84 C 980.47 475.64, 981.30 475.47, 982.75 475.01 C 984.21 474.54, 984.86 474.20, 986.12 473.51 C 987.37 472.82, 987.94 472.44, 989.03 471.56 C 990.12 470.67, 990.62 470.14, 991.57 469.07 C 992.53 467.99, 992.93 467.42, 993.79 466.17 C 994.66 464.93, 995.06 464.26, 995.88 462.84 C 996.70 461.42, 997.09 460.74, 997.90 459.08 C 998.71 457.42, 999.13 456.50, 999.92 454.55 C 1000.72 452.61, 1001.11 451.58, 1001.89 449.34 C 1002.68 447.10, 1003.05 445.88, 1003.83 443.37 C 1004.62 440.86, 1005.09 439.49, 1005.82 436.79 C 1006.54 434.09, 1006.90 432.64, 1007.44 429.86 C 1007.99 427.07, 1008.27 425.61, 1008.54 422.86 C 1008.81 420.10, 1008.89 418.72, 1008.79 416.07 C 1008.70 413.43, 1008.56 412.11, 1008.06 409.63 C 1007.56 407.14, 1007.13 405.94, 1006.27 403.64 C 1005.42 401.34, 1004.87 400.24, 1003.79 398.13 C 1002.71 396.02, 1001.99 395.07, 1000.86 393.09 C 999.73 391.10, 999.11 390.08, 998.12 388.21 C 997.13 386.33, 996.63 385.35, 995.92 383.71 C 995.20 382.07, 994.95 381.23, 994.54 380.03 C 994.13 378.82, 994.02 378.35, 993.85 377.68 C 993.69 377.01, 993.63 376.89, 993.70 376.69 C 993.77 376.49, 993.93 376.39, 994.22 376.68 C 994.52 376.96, 994.86 377.10, 995.18 378.13 C 995.50 379.17, 995.72 379.86, 995.81 381.84 C 995.90 383.83, 995.94 385.14, 995.62 388.06 C 995.30 390.98, 995.16 392.88, 994.21 396.45 C 993.27 400.02, 992.57 402.21, 990.90 405.92 C 989.23 409.63, 988.16 411.68, 985.86 415.00 C 983.56 418.32, 982.13 419.91, 979.39 422.50 C 976.65 425.10, 975.05 426.26, 972.15 428.00 C 969.26 429.74, 967.70 430.38, 964.91 431.21 C 962.12 432.04, 960.70 432.18, 958.21 432.14 C 955.72 432.09, 954.51 431.95, 952.48 430.98 C 950.45 430.01, 949.55 429.33, 948.06 427.30 C 946.58 425.27, 945.86 424.02, 945.04 420.84 C 944.23 417.65, 943.92 415.70, 943.98 411.39 C 944.05 407.08, 944.31 404.42, 945.37 399.31 C 946.44 394.19, 947.31 391.19, 949.32 385.81 C 951.34 380.44, 952.72 377.44, 955.43 372.44 C 958.15 367.44, 959.85 364.86, 962.90 360.81 C 965.96 356.75, 967.75 354.93, 970.72 352.17 C 973.68 349.40, 975.21 348.52, 977.75 346.98 C 980.29 345.43, 981.48 345.06, 983.43 344.44 C 985.39 343.82, 986.10 343.82, 987.53 343.89 C 988.97 343.97, 989.52 344.43, 990.61 344.81 C 991.70 345.20, 992.12 345.54, 992.98 345.81 C 993.84 346.09, 994.33 346.36, 994.89 346.20 C 995.46 346.04, 995.85 345.63, 995.82 345.01" style="stroke: black; fill: black;"/><path d="M 1052.88,391.22 C 1052.92 390.62, 1052.69 390.13, 1052.08 389.37 C 1051.48 388.61, 1051.05 388.06, 1049.85 387.42 C 1048.64 386.78, 1047.73 386.37, 1046.07 386.18 C 1044.41 385.99, 1043.51 385.97, 1041.54 386.47 C 1039.57 386.98, 1038.39 387.22, 1036.21 388.70 C 1034.04 390.18, 1032.80 391.26, 1030.67 393.86 C 1028.55 396.46, 1027.40 398.23, 1025.59 401.70 C 1023.79 405.16, 1022.86 407.38, 1021.64 411.19 C 1020.43 415.00, 1019.90 417.18, 1019.52 420.75 C 1019.14 424.32, 1019.12 426.22, 1019.75 429.03 C 1020.38 431.84, 1021.11 433.02, 1022.66 434.81 C 1024.22 436.59, 1025.32 437.26, 1027.51 437.96 C 1029.70 438.67, 1031.08 438.75, 1033.61 438.32 C 1036.13 437.89, 1037.64 437.37, 1040.15 435.82 C 1042.66 434.27, 1043.96 433.07, 1046.16 430.56 C 1048.35 428.04, 1049.43 426.42, 1051.14 423.24 C 1052.85 420.06, 1053.59 418.14, 1054.71 414.66 C 1055.83 411.18, 1056.25 409.22, 1056.75 405.85 C 1057.24 402.48, 1057.35 400.69, 1057.20 397.82 C 1057.04 394.95, 1056.68 393.62, 1056.00 391.51 C 1055.31 389.40, 1054.72 388.53, 1053.77 387.26 C 1052.81 386.00, 1051.91 385.46, 1051.22 385.20 C 1050.52 384.94, 1050.22 385.30, 1050.30 385.97 C 1050.38 386.63, 1051.09 387.25, 1051.63 388.53 C 1052.18 389.80, 1052.59 390.45, 1053.02 392.34 C 1053.45 394.23, 1053.66 395.37, 1053.79 397.99 C 1053.92 400.61, 1054.04 402.28, 1053.65 405.43 C 1053.26 408.58, 1052.89 410.48, 1051.84 413.74 C 1050.79 417.00, 1050.05 418.83, 1048.41 421.73 C 1046.76 424.64, 1045.67 426.09, 1043.63 428.27 C 1041.58 430.45, 1040.31 431.30, 1038.17 432.63 C 1036.03 433.97, 1034.88 434.46, 1032.91 434.96 C 1030.94 435.46, 1029.94 435.53, 1028.32 435.14 C 1026.69 434.76, 1025.87 434.38, 1024.77 433.03 C 1023.66 431.68, 1023.27 430.79, 1022.81 428.39 C 1022.35 426.00, 1022.16 424.32, 1022.48 421.05 C 1022.79 417.79, 1023.23 415.65, 1024.39 412.07 C 1025.55 408.49, 1026.49 406.34, 1028.30 403.16 C 1030.10 399.99, 1031.38 398.44, 1033.39 396.17 C 1035.41 393.91, 1036.55 393.08, 1038.36 391.83 C 1040.17 390.59, 1041.00 390.31, 1042.44 389.93 C 1043.87 389.55, 1044.40 389.71, 1045.53 389.93 C 1046.65 390.14, 1047.15 390.60, 1048.06 391.01 C 1048.98 391.42, 1049.35 391.72, 1050.11 391.99 C 1050.88 392.26, 1051.33 392.52, 1051.88 392.37 C 1052.43 392.21, 1052.84 391.82, 1052.88 391.22" style="stroke: black; fill: black;"/><path d="M 1068.94,383.83 C 1068.47 384.20, 1068.27 384.49, 1067.81 385.87 C 1067.35 387.25, 1067.00 388.20, 1066.64 390.72 C 1066.28 393.24, 1066.31 395.01, 1066.02 398.46 C 1065.72 401.91, 1065.61 404.16, 1065.16 407.98 C 1064.70 411.80, 1064.33 414.02, 1063.75 417.54 C 1063.17 421.05, 1062.69 422.79, 1062.25 425.57 C 1061.80 428.36, 1061.62 429.65, 1061.52 431.48 C 1061.43 433.32, 1061.45 434.00, 1061.78 434.74 C 1062.11 435.49, 1062.55 435.64, 1063.16 435.22 C 1063.77 434.80, 1064.22 434.35, 1064.84 432.63 C 1065.45 430.92, 1065.59 429.63, 1066.23 426.63 C 1066.86 423.64, 1066.96 421.48, 1068.02 417.64 C 1069.08 413.81, 1069.84 411.37, 1071.52 407.48 C 1073.21 403.59, 1074.36 401.42, 1076.43 398.19 C 1078.51 394.96, 1079.84 393.48, 1081.90 391.34 C 1083.97 389.19, 1085.03 388.45, 1086.77 387.45 C 1088.51 386.45, 1089.32 386.30, 1090.60 386.34 C 1091.89 386.38, 1092.35 386.59, 1093.19 387.67 C 1094.02 388.74, 1094.25 389.56, 1094.77 391.72 C 1095.29 393.87, 1095.56 395.37, 1095.79 398.45 C 1096.01 401.53, 1096.00 403.54, 1095.89 407.12 C 1095.79 410.70, 1095.57 412.86, 1095.27 416.34 C 1094.98 419.82, 1094.63 421.61, 1094.41 424.51 C 1094.19 427.41, 1094.06 428.74, 1094.19 430.83 C 1094.32 432.93, 1094.67 433.78, 1095.07 434.97 C 1095.47 436.16, 1095.79 436.48, 1096.18 436.80 C 1096.57 437.12, 1096.82 437.01, 1097.01 436.58 C 1097.20 436.15, 1097.07 435.81, 1097.12 434.66 C 1097.17 433.52, 1097.11 432.82, 1097.25 430.84 C 1097.39 428.86, 1097.59 427.63, 1097.82 424.78 C 1098.05 421.93, 1098.15 420.10, 1098.41 416.59 C 1098.67 413.09, 1098.92 410.94, 1099.13 407.26 C 1099.33 403.59, 1099.61 401.54, 1099.43 398.22 C 1099.26 394.90, 1099.12 393.17, 1098.26 390.68 C 1097.41 388.19, 1096.66 387.13, 1095.16 385.77 C 1093.66 384.41, 1092.71 384.05, 1090.76 383.89 C 1088.82 383.72, 1087.65 383.86, 1085.44 384.94 C 1083.24 386.02, 1082.01 386.92, 1079.76 389.28 C 1077.50 391.64, 1076.31 393.34, 1074.17 396.76 C 1072.03 400.18, 1070.88 402.39, 1069.05 406.38 C 1067.22 410.37, 1066.43 412.84, 1065.04 416.70 C 1063.65 420.55, 1062.88 422.62, 1062.10 425.67 C 1061.33 428.73, 1061.20 430.11, 1061.17 431.97 C 1061.13 433.83, 1061.51 434.39, 1061.93 434.99 C 1062.35 435.58, 1062.76 435.55, 1063.26 434.94 C 1063.77 434.33, 1064.00 433.71, 1064.47 431.95 C 1064.94 430.18, 1065.17 428.91, 1065.63 426.12 C 1066.08 423.33, 1066.23 421.55, 1066.75 418.01 C 1067.27 414.46, 1067.66 412.22, 1068.24 408.40 C 1068.82 404.58, 1069.12 402.33, 1069.65 398.90 C 1070.18 395.46, 1070.66 393.75, 1070.89 391.21 C 1071.11 388.67, 1070.92 387.65, 1070.78 386.20 C 1070.64 384.75, 1070.54 384.45, 1070.18 383.98 C 1069.81 383.50, 1069.41 383.45, 1068.94 383.83" style="stroke: black; fill: black;"/><path d="M 1135.82,392.02 C 1135.77 391.40, 1135.45 390.82, 1134.66 390.20 C 1133.87 389.59, 1133.28 389.16, 1131.89 388.94 C 1130.50 388.73, 1129.51 388.52, 1127.71 389.14 C 1125.91 389.75, 1124.83 390.24, 1122.89 392.01 C 1120.95 393.79, 1119.92 395.09, 1118.03 398.01 C 1116.14 400.93, 1115.12 402.96, 1113.45 406.61 C 1111.77 410.26, 1110.88 412.57, 1109.65 416.25 C 1108.42 419.93, 1107.68 421.93, 1107.29 424.99 C 1106.91 428.05, 1107.08 429.52, 1107.71 431.55 C 1108.34 433.57, 1109.02 434.28, 1110.44 435.12 C 1111.87 435.97, 1112.92 436.10, 1114.84 435.76 C 1116.76 435.42, 1117.99 434.93, 1120.04 433.43 C 1122.10 431.92, 1123.16 430.74, 1125.11 428.22 C 1127.05 425.71, 1127.96 424.02, 1129.75 420.84 C 1131.54 417.65, 1132.45 415.65, 1134.05 412.31 C 1135.66 408.97, 1136.60 407.06, 1137.77 404.13 C 1138.94 401.21, 1139.48 399.56, 1139.90 397.68 C 1140.32 395.80, 1140.13 394.96, 1139.87 394.73 C 1139.60 394.50, 1139.07 394.84, 1138.59 396.52 C 1138.10 398.20, 1137.87 399.66, 1137.44 403.12 C 1137.01 406.58, 1136.95 409.02, 1136.43 413.82 C 1135.91 418.63, 1135.56 421.56, 1134.85 427.15 C 1134.14 432.74, 1133.71 435.89, 1132.90 441.77 C 1132.09 447.66, 1131.65 450.83, 1130.80 456.56 C 1129.95 462.29, 1129.55 465.23, 1128.66 470.43 C 1127.77 475.63, 1127.36 478.16, 1126.37 482.56 C 1125.39 486.95, 1124.85 489.03, 1123.72 492.40 C 1122.59 495.77, 1121.88 497.15, 1120.71 499.41 C 1119.53 501.66, 1119.09 502.48, 1117.86 503.68 C 1116.63 504.87, 1115.98 505.14, 1114.58 505.37 C 1113.18 505.60, 1112.48 505.43, 1110.86 504.83 C 1109.24 504.24, 1108.33 503.69, 1106.49 502.38 C 1104.66 501.08, 1103.60 500.21, 1101.68 498.30 C 1099.75 496.39, 1098.59 495.19, 1096.87 492.83 C 1095.14 490.46, 1094.27 489.08, 1093.06 486.48 C 1091.84 483.88, 1091.33 482.42, 1090.80 479.82 C 1090.27 477.23, 1090.12 475.96, 1090.43 473.52 C 1090.74 471.08, 1091.08 469.95, 1092.36 467.64 C 1093.63 465.34, 1094.89 464.07, 1096.80 462.00 C 1098.70 459.93, 1100.13 458.97, 1101.90 457.30 C 1103.67 455.62, 1105.04 454.60, 1105.63 453.64 C 1106.22 452.67, 1106.00 452.26, 1104.84 452.48 C 1103.69 452.69, 1102.01 453.29, 1099.86 454.69 C 1097.71 456.09, 1096.20 457.21, 1094.08 459.47 C 1091.96 461.74, 1090.66 463.29, 1089.28 466.02 C 1087.89 468.74, 1087.54 470.21, 1087.17 473.10 C 1086.80 475.99, 1086.87 477.51, 1087.43 480.48 C 1087.98 483.44, 1088.62 485.04, 1089.93 487.92 C 1091.23 490.80, 1092.15 492.26, 1093.94 494.89 C 1095.74 497.51, 1096.82 498.93, 1098.91 501.05 C 1101.00 503.18, 1102.19 504.14, 1104.40 505.53 C 1106.61 506.91, 1107.79 507.48, 1109.94 507.98 C 1112.09 508.49, 1113.19 508.52, 1115.14 508.05 C 1117.09 507.58, 1118.04 507.09, 1119.67 505.63 C 1121.31 504.18, 1122.04 503.26, 1123.32 500.76 C 1124.61 498.26, 1125.08 496.70, 1126.10 493.14 C 1127.12 489.59, 1127.55 487.47, 1128.43 482.99 C 1129.31 478.51, 1129.69 475.97, 1130.52 470.74 C 1131.35 465.50, 1131.74 462.56, 1132.58 456.82 C 1133.42 451.08, 1133.86 447.91, 1134.72 442.03 C 1135.58 436.16, 1136.03 433.00, 1136.89 427.43 C 1137.75 421.86, 1138.22 418.95, 1139.02 414.18 C 1139.82 409.40, 1140.44 407.06, 1140.89 403.56 C 1141.34 400.07, 1141.52 398.56, 1141.28 396.71 C 1141.04 394.85, 1140.50 394.31, 1139.69 394.29 C 1138.88 394.27, 1138.25 394.90, 1137.23 396.61 C 1136.21 398.32, 1135.79 399.96, 1134.59 402.84 C 1133.40 405.71, 1132.78 407.71, 1131.25 410.99 C 1129.73 414.26, 1128.78 416.22, 1126.96 419.20 C 1125.14 422.18, 1124.02 423.63, 1122.16 425.87 C 1120.30 428.12, 1119.29 429.01, 1117.66 430.42 C 1116.03 431.83, 1115.26 432.36, 1114.02 432.93 C 1112.78 433.51, 1112.23 433.70, 1111.47 433.31 C 1110.71 432.92, 1110.40 432.55, 1110.22 430.98 C 1110.03 429.41, 1110.09 428.22, 1110.55 425.46 C 1111.01 422.71, 1111.36 420.69, 1112.49 417.19 C 1113.63 413.68, 1114.53 411.37, 1116.23 407.93 C 1117.92 404.50, 1119.11 402.62, 1120.97 400.01 C 1122.84 397.41, 1123.96 396.40, 1125.56 394.89 C 1127.16 393.39, 1127.80 392.98, 1128.96 392.49 C 1130.13 392.00, 1130.54 392.33, 1131.38 392.44 C 1132.21 392.55, 1132.44 392.88, 1133.14 393.05 C 1133.85 393.23, 1134.36 393.52, 1134.89 393.32 C 1135.43 393.11, 1135.86 392.65, 1135.82 392.02" style="stroke: black; fill: black;"/></svg>