<svg xmlns="http://www.w3.org/2000/svg" id="canvas" viewBox="209.052 257.919 942.318 350.841"><path d="M 212.11,278.08 C 211.91 279.73, 212.27 281.77, 212.58 286.22 C 212.88 290.67, 213.10 293.78, 213.65 300.31 C 214.20 306.84, 214.81 311.37, 215.33 318.86 C 215.85 326.36, 215.90 330.39, 216.25 337.78 C 216.60 345.17, 216.73 349.01, 217.08 355.80 C 217.43 362.60, 217.51 366.03, 218.01 371.75 C 218.51 377.46, 218.73 380.08, 219.58 384.38 C 220.43 388.67, 220.84 390.52, 222.26 393.22 C 223.67 395.92, 224.73 396.85, 226.66 397.89 C 228.58 398.93, 229.85 399.27, 231.88 398.42 C 233.92 397.58, 234.94 396.56, 236.85 393.67 C 238.75 390.77, 239.48 388.92, 241.39 383.93 C 243.30 378.94, 244.27 375.78, 246.39 368.71 C 248.51 361.64, 249.81 357.27, 252.01 348.59 C 254.20 339.92, 255.26 334.45, 257.36 325.34 C 259.45 316.24, 260.52 311.30, 262.49 303.06 C 264.46 294.82, 265.51 290.73, 267.22 284.14 C 268.94 277.55, 270.04 274.47, 271.08 270.12 C 272.13 265.76, 272.58 263.97, 272.46 262.36 C 272.33 260.74, 271.16 260.28, 270.46 262.06 C 269.76 263.85, 269.47 265.80, 268.96 271.26 C 268.45 276.72, 268.28 280.55, 267.91 289.35 C 267.54 298.16, 267.40 303.93, 267.13 315.28 C 266.86 326.63, 266.65 333.46, 266.54 346.09 C 266.43 358.73, 266.42 365.52, 266.58 378.45 C 266.75 391.38, 267.03 398.35, 267.39 410.74 C 267.75 423.14, 268.19 429.21, 268.38 440.44 C 268.58 451.66, 268.59 456.89, 268.37 466.86 C 268.15 476.84, 268.16 481.55, 267.30 490.29 C 266.44 499.04, 265.37 502.88, 264.08 510.59 C 262.80 518.30, 262.36 521.97, 260.87 528.86 C 259.38 535.74, 258.34 539.16, 256.63 544.99 C 254.92 550.83, 253.96 553.44, 252.30 558.03 C 250.63 562.61, 249.63 564.82, 248.29 567.93 C 246.95 571.04, 246.23 572.08, 245.59 573.58 C 244.95 575.08, 245.30 575.18, 245.09 575.43 C 244.88 575.67, 244.74 574.83, 244.55 574.82 C 244.35 574.80, 243.94 575.06, 244.11 575.35 C 244.29 575.63, 244.72 576.37, 245.42 576.25 C 246.12 576.13, 246.55 576.20, 247.60 574.74 C 248.66 573.28, 249.40 572.16, 250.71 568.94 C 252.02 565.72, 252.67 563.36, 254.16 558.66 C 255.66 553.96, 256.58 551.34, 258.19 545.44 C 259.81 539.53, 260.82 536.07, 262.24 529.14 C 263.66 522.21, 264.07 518.54, 265.30 510.79 C 266.53 503.04, 267.58 499.18, 268.39 490.40 C 269.21 481.62, 269.18 476.88, 269.35 466.88 C 269.53 456.89, 269.51 451.65, 269.29 440.42 C 269.07 429.19, 268.62 423.11, 268.25 410.72 C 267.88 398.32, 267.60 391.36, 267.45 378.44 C 267.30 365.52, 267.32 358.73, 267.48 346.10 C 267.64 333.48, 267.86 326.65, 268.25 315.31 C 268.65 303.98, 268.89 298.20, 269.45 289.43 C 270.02 280.66, 270.54 276.87, 271.08 271.46 C 271.62 266.05, 272.16 264.25, 272.16 262.39 C 272.15 260.52, 271.67 260.69, 271.07 262.14 C 270.47 263.59, 270.19 265.32, 269.14 269.65 C 268.08 273.98, 267.37 277.16, 265.79 283.78 C 264.22 290.41, 263.17 294.51, 261.24 302.76 C 259.31 311.01, 258.24 315.96, 256.12 325.06 C 254.00 334.15, 252.93 339.62, 250.66 348.25 C 248.39 356.88, 247.05 361.24, 244.78 368.20 C 242.50 375.17, 241.39 378.31, 239.29 383.07 C 237.19 387.83, 235.96 389.36, 234.27 391.99 C 232.57 394.62, 232.09 395.44, 230.81 396.23 C 229.52 397.02, 229.05 396.79, 227.83 395.94 C 226.61 395.08, 225.94 394.35, 224.71 391.95 C 223.47 389.55, 222.65 387.99, 221.67 383.92 C 220.68 379.84, 220.37 377.22, 219.76 371.58 C 219.15 365.94, 219.02 362.49, 218.63 355.72 C 218.23 348.95, 218.10 345.10, 217.77 337.71 C 217.45 330.32, 217.44 326.26, 217.00 318.75 C 216.56 311.24, 216.02 306.70, 215.56 300.16 C 215.10 293.62, 215.09 290.50, 214.70 286.05 C 214.31 281.61, 214.12 279.53, 213.61 277.93 C 213.09 276.34, 212.32 276.42, 212.11 278.08" style="stroke: black; fill: black;"/><path d="M 298.75,395.37 C 298.12 396.11, 297.40 396.88, 296.96 399.36 C 296.51 401.84, 296.61 403.67, 296.51 407.78 C 296.42 411.88, 296.40 414.72, 296.48 419.91 C 296.57 425.09, 296.65 428.33, 296.94 433.70 C 297.23 439.08, 297.38 442.01, 297.95 446.80 C 298.52 451.59, 298.74 453.92, 299.80 457.65 C 300.86 461.38, 301.64 463.16, 303.26 465.45 C 304.89 467.73, 305.96 468.36, 307.93 469.10 C 309.91 469.83, 310.99 470.01, 313.14 469.13 C 315.30 468.24, 316.67 467.37, 318.70 464.66 C 320.72 461.96, 321.53 459.90, 323.26 455.59 C 324.98 451.28, 325.67 448.75, 327.33 443.13 C 329.00 437.52, 329.91 433.86, 331.57 427.50 C 333.23 421.14, 334.08 417.20, 335.63 411.34 C 337.19 405.47, 337.93 402.52, 339.36 398.19 C 340.79 393.86, 341.81 391.99, 342.77 389.69 C 343.72 387.38, 343.76 386.70, 344.12 386.65 C 344.48 386.60, 344.30 387.38, 344.57 389.43 C 344.85 391.49, 345.03 392.97, 345.51 396.92 C 345.98 400.88, 346.36 403.65, 346.95 409.21 C 347.53 414.76, 347.89 418.49, 348.45 424.69 C 349.01 430.89, 349.21 434.38, 349.74 440.21 C 350.27 446.04, 350.42 449.06, 351.10 453.84 C 351.78 458.62, 351.94 460.76, 353.13 464.12 C 354.32 467.48, 355.10 468.79, 357.05 470.63 C 359.00 472.46, 360.24 473.18, 362.88 473.30 C 365.52 473.41, 367.04 472.85, 370.25 471.20 C 373.46 469.55, 375.56 467.79, 378.95 465.04 C 382.33 462.28, 384.48 460.24, 387.18 457.43 C 389.88 454.62, 391.63 452.49, 392.46 450.98 C 393.30 449.48, 392.79 449.03, 391.34 449.91 C 389.89 450.79, 388.07 452.83, 385.20 455.37 C 382.34 457.92, 380.30 460.01, 377.01 462.61 C 373.71 465.22, 371.55 466.79, 368.73 468.38 C 365.91 469.98, 364.89 470.53, 362.91 470.61 C 360.92 470.69, 360.31 470.25, 358.83 468.78 C 357.35 467.31, 356.63 466.31, 355.50 463.26 C 354.37 460.21, 353.94 458.17, 353.18 453.52 C 352.41 448.88, 352.22 445.84, 351.67 440.04 C 351.13 434.24, 350.92 430.73, 350.45 424.52 C 349.98 418.32, 349.71 414.59, 349.32 409.00 C 348.94 403.41, 348.93 400.65, 348.52 396.59 C 348.11 392.53, 348.15 390.90, 347.26 388.70 C 346.38 386.50, 345.47 385.63, 344.11 385.60 C 342.74 385.56, 341.81 386.15, 340.44 388.54 C 339.07 390.93, 338.60 393.07, 337.28 397.53 C 335.95 402.00, 335.30 404.96, 333.80 410.86 C 332.29 416.76, 331.45 420.69, 329.75 427.02 C 328.05 433.35, 327.11 437.01, 325.32 442.51 C 323.54 448.01, 322.70 450.52, 320.83 454.54 C 318.96 458.57, 317.75 460.22, 315.97 462.64 C 314.19 465.06, 313.37 465.78, 311.94 466.64 C 310.50 467.50, 310.06 467.50, 308.81 466.93 C 307.56 466.35, 307.00 465.79, 305.69 463.79 C 304.38 461.79, 303.36 460.37, 302.26 456.91 C 301.16 453.46, 300.81 451.18, 300.19 446.52 C 299.58 441.86, 299.42 438.92, 299.19 433.59 C 298.96 428.27, 298.95 425.04, 299.03 419.90 C 299.11 414.76, 299.37 411.94, 299.59 407.90 C 299.82 403.86, 300.07 402.16, 300.17 399.71 C 300.27 397.27, 300.39 396.53, 300.11 395.66 C 299.82 394.80, 299.38 394.63, 298.75 395.37" style="stroke: black; fill: black;"/><path d="M 428.55,396.68 C 429.05 395.95, 429.54 394.81, 429.40 393.06 C 429.25 391.31, 428.95 389.79, 427.83 387.94 C 426.72 386.09, 425.81 385.03, 423.82 383.81 C 421.83 382.59, 420.39 381.97, 417.88 381.84 C 415.36 381.71, 413.94 381.98, 411.24 383.18 C 408.53 384.38, 407.06 385.30, 404.35 387.85 C 401.64 390.40, 400.33 392.08, 397.69 395.94 C 395.05 399.79, 393.58 402.01, 391.15 407.13 C 388.71 412.25, 387.52 415.48, 385.50 421.52 C 383.49 427.56, 382.52 431.13, 381.06 437.32 C 379.60 443.51, 379.00 446.90, 378.21 452.48 C 377.41 458.06, 377.17 460.79, 377.08 465.22 C 376.99 469.65, 377.12 471.52, 377.76 474.64 C 378.40 477.77, 379.04 478.97, 380.29 480.85 C 381.54 482.73, 382.39 483.41, 384.01 484.03 C 385.63 484.64, 386.45 484.68, 388.39 483.94 C 390.33 483.19, 391.58 482.66, 393.71 480.31 C 395.83 477.96, 396.76 476.16, 399.02 472.20 C 401.28 468.24, 402.39 465.72, 405.01 460.51 C 407.63 455.30, 409.37 452.21, 412.12 446.14 C 414.87 440.07, 416.26 436.44, 418.76 430.18 C 421.26 423.93, 422.59 420.06, 424.63 414.87 C 426.67 409.68, 428.04 407.18, 428.97 404.22 C 429.90 401.26, 429.62 400.17, 429.26 400.06 C 428.89 399.95, 427.84 400.65, 427.13 403.66 C 426.43 406.67, 426.24 409.71, 425.73 415.12 C 425.23 420.53, 424.98 424.26, 424.61 430.73 C 424.24 437.19, 423.99 441.16, 423.88 447.45 C 423.76 453.73, 423.83 456.98, 424.04 462.16 C 424.26 467.33, 424.21 469.81, 424.95 473.33 C 425.68 476.86, 426.30 478.19, 427.71 479.78 C 429.13 481.38, 430.12 481.68, 432.02 481.31 C 433.91 480.93, 435.29 480.33, 437.20 477.90 C 439.11 475.46, 439.83 473.45, 441.57 469.13 C 443.31 464.81, 444.10 461.97, 445.90 456.31 C 447.71 450.66, 448.70 447.24, 450.58 440.84 C 452.47 434.43, 453.41 430.53, 455.33 424.29 C 457.24 418.05, 458.51 414.64, 460.15 409.64 C 461.79 404.65, 462.72 402.55, 463.53 399.30 C 464.33 396.05, 464.45 394.42, 464.19 393.41 C 463.93 392.40, 463.11 392.42, 462.22 394.26 C 461.34 396.10, 460.90 397.93, 459.77 402.63 C 458.63 407.33, 457.95 410.94, 456.55 417.76 C 455.15 424.58, 454.23 429.10, 452.77 436.73 C 451.31 444.36, 450.31 448.89, 449.24 455.91 C 448.18 462.93, 447.83 466.49, 447.45 471.82 C 447.07 477.16, 446.96 479.42, 447.33 482.57 C 447.69 485.72, 448.09 486.79, 449.26 487.57 C 450.43 488.35, 451.70 488.48, 453.16 486.46 C 454.61 484.43, 455.03 482.49, 456.54 477.46 C 458.05 472.44, 458.69 468.64, 460.72 461.31 C 462.74 453.98, 464.15 449.09, 466.67 440.81 C 469.18 432.52, 470.64 427.36, 473.30 419.88 C 475.96 412.40, 477.32 408.65, 479.95 403.41 C 482.58 398.17, 484.10 396.28, 486.45 393.68 C 488.81 391.08, 489.84 390.71, 491.71 390.40 C 493.59 390.10, 494.27 390.59, 495.82 392.15 C 497.36 393.70, 498.10 394.67, 499.43 398.17 C 500.77 401.67, 501.52 404.09, 502.51 409.64 C 503.51 415.20, 504.05 418.98, 504.41 425.95 C 504.78 432.91, 504.40 437.31, 504.34 444.47 C 504.28 451.63, 504.17 455.54, 504.12 461.75 C 504.07 467.95, 503.89 470.99, 504.08 475.50 C 504.27 480.01, 504.19 481.95, 505.05 484.30 C 505.91 486.65, 506.95 487.35, 508.38 487.23 C 509.82 487.10, 510.97 485.97, 512.22 483.67 C 513.47 481.38, 514.17 478.85, 514.63 475.77 C 515.09 472.68, 514.96 469.81, 514.53 468.24 C 514.09 466.68, 513.33 466.60, 512.45 467.93 C 511.58 469.26, 510.89 471.98, 510.17 474.89 C 509.46 477.79, 509.27 480.20, 508.87 482.45 C 508.47 484.71, 508.48 485.90, 508.16 486.15 C 507.84 486.40, 507.66 485.84, 507.27 483.68 C 506.87 481.53, 506.48 479.77, 506.20 475.39 C 505.92 471.00, 505.90 467.93, 505.87 461.75 C 505.83 455.57, 505.94 451.66, 506.01 444.48 C 506.08 437.31, 506.49 432.90, 506.22 425.86 C 505.95 418.83, 505.50 415.02, 504.65 409.29 C 503.79 403.57, 503.36 401.04, 501.95 397.22 C 500.53 393.40, 499.69 391.99, 497.58 390.21 C 495.46 388.43, 493.90 387.92, 491.37 388.34 C 488.85 388.77, 487.52 389.45, 484.94 392.32 C 482.36 395.19, 481.09 397.27, 478.49 402.69 C 475.88 408.10, 474.58 411.86, 471.93 419.40 C 469.28 426.93, 467.82 432.08, 465.23 440.36 C 462.64 448.65, 461.17 453.53, 458.98 460.81 C 456.79 468.09, 455.86 471.87, 454.27 476.76 C 452.68 481.64, 451.89 483.23, 451.03 485.24 C 450.17 487.25, 450.24 487.38, 449.98 486.81 C 449.73 486.24, 449.89 485.35, 449.75 482.37 C 449.62 479.40, 449.09 477.18, 449.31 471.93 C 449.53 466.68, 449.83 463.12, 450.84 456.15 C 451.86 449.17, 452.85 444.64, 454.39 437.05 C 455.93 429.46, 456.96 424.96, 458.54 418.19 C 460.11 411.43, 461.11 407.91, 462.28 403.24 C 463.44 398.58, 464.17 396.87, 464.36 394.85 C 464.54 392.84, 463.88 392.43, 463.22 393.18 C 462.55 393.94, 462.04 395.43, 461.04 398.60 C 460.05 401.78, 459.73 404.02, 458.25 409.05 C 456.76 414.08, 455.50 417.51, 453.62 423.77 C 451.74 430.02, 450.78 433.94, 448.84 440.31 C 446.89 446.69, 445.85 450.09, 443.89 455.64 C 441.94 461.19, 440.95 463.99, 439.06 468.04 C 437.17 472.09, 435.96 473.61, 434.43 475.88 C 432.90 478.15, 432.44 478.88, 431.43 479.41 C 430.41 479.94, 430.18 479.83, 429.37 478.52 C 428.56 477.20, 428.06 476.12, 427.39 472.83 C 426.73 469.54, 426.39 467.12, 426.06 462.05 C 425.74 456.98, 425.63 453.72, 425.76 447.48 C 425.88 441.24, 426.20 437.28, 426.70 430.87 C 427.20 424.45, 427.60 420.75, 428.24 415.39 C 428.88 410.03, 429.70 407.16, 429.91 404.07 C 430.11 400.98, 429.92 400.07, 429.27 399.92 C 428.63 399.78, 427.98 400.49, 426.67 403.34 C 425.37 406.19, 424.67 408.92, 422.76 414.16 C 420.84 419.40, 419.58 423.29, 417.12 429.53 C 414.67 435.78, 413.27 439.38, 410.47 445.38 C 407.67 451.38, 405.88 454.45, 403.12 459.53 C 400.36 464.60, 399.11 467.10, 396.68 470.76 C 394.26 474.43, 392.90 475.74, 390.99 477.86 C 389.08 479.99, 388.36 480.56, 387.13 481.38 C 385.89 482.20, 385.74 482.35, 384.82 481.97 C 383.91 481.58, 383.43 481.04, 382.55 479.45 C 381.68 477.87, 381.10 476.90, 380.44 474.06 C 379.78 471.21, 379.33 469.49, 379.26 465.23 C 379.19 460.96, 379.38 458.23, 380.09 452.74 C 380.80 447.24, 381.38 443.86, 382.82 437.74 C 384.26 431.61, 385.23 428.06, 387.27 422.12 C 389.32 416.19, 390.54 413.00, 393.03 408.05 C 395.52 403.11, 397.05 400.97, 399.73 397.40 C 402.41 393.82, 403.82 392.34, 406.42 390.18 C 409.01 388.01, 410.46 387.54, 412.72 386.58 C 414.98 385.62, 415.90 385.27, 417.70 385.36 C 419.51 385.45, 420.41 386.09, 421.73 387.02 C 423.06 387.96, 423.52 388.68, 424.34 390.04 C 425.16 391.40, 425.31 392.48, 425.82 393.82 C 426.34 395.17, 426.38 396.18, 426.93 396.75 C 427.47 397.32, 428.06 397.42, 428.55 396.68" style="stroke: black; fill: black;"/><path d="M 556.42,326.57 C 556.06 326.72, 555.82 326.43, 555.45 327.51 C 555.07 328.60, 554.76 328.95, 554.54 331.99 C 554.33 335.03, 554.85 337.18, 554.37 342.70 C 553.89 348.22, 553.30 351.76, 552.15 359.60 C 550.99 367.44, 550.24 372.40, 548.59 381.89 C 546.94 391.39, 545.89 396.84, 543.87 407.08 C 541.85 417.33, 540.28 423.15, 538.49 433.11 C 536.69 443.06, 535.99 448.49, 534.90 456.87 C 533.80 465.25, 533.32 468.79, 533.00 475.02 C 532.68 481.25, 532.79 483.79, 533.30 488.01 C 533.81 492.24, 534.53 493.66, 535.56 496.14 C 536.58 498.62, 537.37 499.25, 538.42 500.40 C 539.48 501.54, 539.95 501.67, 540.83 501.86 C 541.71 502.06, 542.47 501.69, 542.84 501.38 C 543.21 501.06, 542.98 500.51, 542.68 500.30 C 542.37 500.09, 541.83 500.58, 541.32 500.33 C 540.81 500.08, 540.81 500.08, 540.13 499.04 C 539.46 498.00, 538.93 497.39, 537.95 495.13 C 536.96 492.87, 535.90 491.74, 535.20 487.73 C 534.50 483.72, 534.27 481.22, 534.46 475.08 C 534.64 468.93, 535.08 465.38, 536.10 457.02 C 537.13 448.67, 537.81 443.25, 539.58 433.30 C 541.36 423.36, 542.93 417.54, 544.98 407.30 C 547.03 397.06, 548.09 391.61, 549.84 382.12 C 551.59 372.63, 552.38 367.69, 553.74 359.86 C 555.11 352.04, 555.77 348.51, 556.69 342.99 C 557.61 337.47, 558.11 335.33, 558.34 332.26 C 558.57 329.20, 558.04 328.79, 557.82 327.68 C 557.60 326.57, 557.52 326.95, 557.23 326.73 C 556.95 326.51, 556.77 326.41, 556.42 326.57" style="stroke: black; fill: black;"/><path d="M 612.97,310.43 C 612.08 311.15, 611.41 311.90, 609.73 314.74 C 608.05 317.59, 607.18 319.75, 604.57 324.64 C 601.96 329.54, 600.33 332.83, 596.70 339.23 C 593.06 345.64, 590.83 349.63, 586.38 356.67 C 581.93 363.70, 579.25 367.46, 574.44 374.40 C 569.63 381.34, 566.78 384.95, 562.34 391.37 C 557.91 397.79, 555.73 401.14, 552.26 406.49 C 548.80 411.85, 547.18 414.04, 545.03 418.16 C 542.89 422.27, 542.09 423.94, 541.54 427.05 C 540.98 430.17, 541.27 431.49, 542.26 433.72 C 543.26 435.96, 544.14 436.74, 546.51 438.22 C 548.87 439.69, 550.55 440.25, 554.08 441.11 C 557.61 441.98, 559.90 442.16, 564.17 442.55 C 568.44 442.95, 570.97 442.84, 575.42 443.10 C 579.87 443.35, 582.17 443.57, 586.42 443.84 C 590.67 444.10, 592.90 444.25, 596.65 444.42 C 600.41 444.59, 602.21 444.72, 605.19 444.68 C 608.16 444.64, 609.46 444.46, 611.55 444.22 C 613.64 443.97, 614.81 443.84, 615.62 443.44 C 616.43 443.04, 616.43 442.61, 615.60 442.23 C 614.78 441.85, 613.58 441.70, 611.49 441.54 C 609.40 441.38, 608.10 441.40, 605.15 441.42 C 602.20 441.45, 600.44 441.69, 596.73 441.66 C 593.01 441.63, 590.80 441.51, 586.57 441.27 C 582.34 441.04, 580.01 440.81, 575.59 440.49 C 571.17 440.18, 568.62 440.19, 564.48 439.68 C 560.33 439.18, 558.15 438.80, 554.87 437.96 C 551.58 437.13, 550.14 436.55, 548.05 435.50 C 545.96 434.45, 545.21 434.32, 544.40 432.72 C 543.59 431.12, 543.52 430.23, 544.00 427.49 C 544.47 424.74, 544.84 423.05, 546.76 419.02 C 548.68 414.99, 550.24 412.71, 553.59 407.33 C 556.93 401.96, 559.09 398.59, 563.49 392.15 C 567.88 385.72, 570.72 382.10, 575.54 375.16 C 580.36 368.22, 583.07 364.46, 587.60 357.45 C 592.13 350.44, 594.42 346.46, 598.20 340.11 C 601.99 333.77, 603.74 330.53, 606.51 325.72 C 609.29 320.91, 610.58 318.99, 612.10 316.06 C 613.63 313.14, 613.98 312.23, 614.15 311.10 C 614.33 309.98, 613.85 309.70, 612.97 310.43" style="stroke: black; fill: black;"/><path d="M 659.73,380.50 C 659.88 379.71, 659.75 378.74, 659.10 377.43 C 658.46 376.12, 657.77 375.09, 656.51 373.97 C 655.26 372.85, 654.53 372.27, 652.83 371.82 C 651.14 371.36, 650.22 370.77, 648.04 371.69 C 645.85 372.60, 644.65 373.38, 641.92 376.39 C 639.18 379.40, 637.66 381.57, 634.35 386.74 C 631.03 391.92, 628.74 395.31, 625.34 402.27 C 621.93 409.23, 620.01 413.88, 617.32 421.53 C 614.62 429.17, 613.35 433.80, 611.87 440.51 C 610.39 447.21, 610.10 450.26, 609.94 455.06 C 609.78 459.87, 609.97 461.85, 611.07 464.54 C 612.17 467.23, 613.36 467.94, 615.45 468.50 C 617.55 469.06, 619.05 468.82, 621.53 467.33 C 624.02 465.83, 625.15 464.44, 627.88 461.02 C 630.61 457.60, 632.11 455.34, 635.16 450.25 C 638.21 445.16, 639.90 441.94, 643.13 435.56 C 646.36 429.18, 648.20 425.07, 651.32 418.34 C 654.44 411.61, 656.17 407.78, 658.74 401.89 C 661.30 396.01, 662.54 393.02, 664.15 388.92 C 665.77 384.82, 666.46 383.14, 666.81 381.39 C 667.17 379.64, 666.61 379.39, 665.92 380.16 C 665.23 380.94, 664.35 381.96, 663.36 385.28 C 662.37 388.60, 661.93 391.32, 660.97 396.75 C 660.01 402.18, 659.56 405.86, 658.56 412.42 C 657.56 418.98, 656.82 422.83, 655.95 429.54 C 655.08 436.25, 654.57 440.10, 654.19 445.97 C 653.81 451.85, 653.79 454.62, 654.05 458.91 C 654.30 463.20, 654.58 464.96, 655.48 467.41 C 656.37 469.86, 656.99 470.44, 658.52 471.18 C 660.05 471.91, 661.19 471.90, 663.12 471.08 C 665.04 470.26, 666.52 469.14, 668.16 467.09 C 669.79 465.05, 670.49 463.24, 671.28 460.88 C 672.08 458.51, 672.27 456.53, 672.12 455.29 C 671.97 454.05, 671.46 453.91, 670.53 454.67 C 669.60 455.43, 668.67 457.15, 667.46 459.11 C 666.26 461.07, 665.68 462.59, 664.50 464.49 C 663.33 466.39, 662.63 467.59, 661.58 468.62 C 660.54 469.64, 660.03 470.03, 659.29 469.63 C 658.54 469.24, 658.47 468.81, 657.87 466.63 C 657.26 464.46, 656.62 462.86, 656.25 458.75 C 655.89 454.64, 655.75 451.87, 656.04 446.08 C 656.33 440.28, 656.81 436.44, 657.70 429.77 C 658.59 423.10, 659.33 419.24, 660.49 412.74 C 661.64 406.23, 662.29 402.58, 663.47 397.25 C 664.64 391.91, 665.67 389.41, 666.37 386.04 C 667.08 382.68, 667.23 381.49, 666.99 380.43 C 666.75 379.36, 666.14 379.18, 665.16 380.72 C 664.19 382.26, 663.73 384.02, 662.12 388.12 C 660.52 392.22, 659.61 395.31, 657.15 401.22 C 654.70 407.12, 652.96 410.95, 649.85 417.66 C 646.74 424.36, 644.88 428.46, 641.58 434.76 C 638.29 441.06, 636.54 444.24, 633.38 449.14 C 630.22 454.05, 628.50 456.16, 625.79 459.29 C 623.08 462.41, 621.81 463.30, 619.83 464.76 C 617.85 466.23, 617.19 466.84, 615.88 466.62 C 614.56 466.41, 614.06 466.01, 613.25 463.70 C 612.44 461.40, 611.79 459.68, 611.83 455.10 C 611.87 450.53, 612.04 447.45, 613.43 440.84 C 614.82 434.23, 616.08 429.60, 618.76 422.04 C 621.44 414.47, 623.37 409.84, 626.83 403.02 C 630.30 396.19, 632.66 392.84, 636.10 387.91 C 639.54 382.99, 641.40 381.08, 644.04 378.39 C 646.68 375.71, 647.74 375.26, 649.30 374.51 C 650.85 373.75, 650.95 374.15, 651.80 374.63 C 652.65 375.10, 652.71 375.85, 653.54 376.87 C 654.37 377.89, 655.00 378.81, 655.97 379.71 C 656.93 380.62, 657.61 381.22, 658.36 381.38 C 659.11 381.54, 659.59 381.29, 659.73 380.50" style="stroke: black; fill: black;"/><path d="M 693.09,365.41 C 692.78 365.48, 692.24 364.79, 691.88 365.86 C 691.52 366.92, 691.18 367.86, 691.30 370.74 C 691.41 373.61, 692.21 375.54, 692.45 380.21 C 692.70 384.88, 692.58 388.37, 692.53 394.07 C 692.49 399.77, 692.49 403.10, 692.23 408.73 C 691.97 414.36, 691.70 417.16, 691.24 422.23 C 690.79 427.31, 690.43 429.82, 689.93 434.10 C 689.44 438.39, 688.87 440.71, 688.79 443.68 C 688.70 446.64, 689.00 448.11, 689.51 448.92 C 690.03 449.74, 690.71 449.50, 691.35 447.74 C 692.00 445.98, 692.03 444.41, 692.75 440.11 C 693.46 435.80, 693.70 432.43, 694.93 426.22 C 696.17 420.00, 696.95 415.75, 698.90 409.04 C 700.85 402.33, 702.20 398.46, 704.68 392.66 C 707.16 386.86, 708.55 384.06, 711.29 380.06 C 714.03 376.05, 715.72 374.69, 718.37 372.63 C 721.02 370.56, 722.36 370.18, 724.54 369.73 C 726.71 369.28, 727.55 369.44, 729.24 370.37 C 730.93 371.31, 731.57 371.87, 733.00 374.41 C 734.43 376.94, 735.23 378.71, 736.41 383.05 C 737.58 387.39, 738.06 390.25, 738.87 396.12 C 739.68 401.98, 740.10 405.78, 740.46 412.37 C 740.82 418.97, 740.71 422.85, 740.67 429.10 C 740.63 435.34, 740.36 438.44, 740.26 443.60 C 740.16 448.77, 740.11 451.27, 740.17 454.92 C 740.23 458.57, 739.90 460.13, 740.54 461.85 C 741.18 463.57, 742.71 463.30, 743.37 463.52 C 744.02 463.73, 744.01 463.36, 743.80 462.93 C 743.59 462.51, 742.53 463.00, 742.31 461.40 C 742.08 459.79, 742.70 458.45, 742.68 454.90 C 742.67 451.34, 742.29 448.77, 742.25 443.62 C 742.20 438.46, 742.46 435.37, 742.47 429.10 C 742.48 422.84, 742.61 418.93, 742.30 412.28 C 741.99 405.63, 741.62 401.82, 740.93 395.85 C 740.25 389.88, 739.92 387.03, 738.87 382.43 C 737.82 377.84, 737.35 375.76, 735.67 372.88 C 733.99 369.99, 732.80 369.15, 730.46 368.00 C 728.13 366.86, 726.72 366.60, 724.01 367.16 C 721.29 367.71, 719.76 368.43, 716.90 370.79 C 714.03 373.16, 712.45 374.75, 709.68 378.98 C 706.92 383.22, 705.57 386.06, 703.06 391.97 C 700.56 397.88, 699.21 401.77, 697.15 408.52 C 695.09 415.28, 694.19 419.52, 692.75 425.75 C 691.31 431.97, 690.68 435.31, 689.95 439.64 C 689.23 443.97, 689.02 445.55, 689.13 447.41 C 689.24 449.27, 689.94 449.65, 690.50 448.95 C 691.05 448.25, 691.55 446.84, 691.91 443.91 C 692.27 440.99, 692.02 438.62, 692.30 434.32 C 692.57 430.01, 692.89 427.50, 693.29 422.41 C 693.68 417.31, 693.97 414.49, 694.28 408.83 C 694.59 403.18, 694.60 399.85, 694.84 394.13 C 695.08 388.40, 695.28 384.92, 695.47 380.19 C 695.66 375.46, 696.00 373.38, 695.79 370.48 C 695.58 367.59, 694.89 366.71, 694.42 365.72 C 693.95 364.72, 693.69 365.58, 693.42 365.52 C 693.16 365.45, 693.40 365.34, 693.09 365.41" style="stroke: black; fill: black;"/><path d="M 802.00,394.02 C 802.76 393.31, 803.47 392.07, 804.25 389.99 C 805.02 387.91, 805.64 386.35, 805.89 383.60 C 806.14 380.85, 806.11 378.97, 805.50 376.25 C 804.89 373.53, 804.38 372.19, 802.85 369.98 C 801.32 367.78, 800.21 366.64, 797.84 365.24 C 795.47 363.84, 793.93 362.94, 791.00 362.99 C 788.06 363.04, 786.46 363.55, 783.18 365.50 C 779.89 367.46, 777.93 368.96, 774.58 372.77 C 771.23 376.57, 769.40 379.16, 766.42 384.51 C 763.43 389.87, 761.93 393.31, 759.66 399.53 C 757.38 405.74, 756.26 409.45, 755.04 415.58 C 753.83 421.70, 753.46 425.07, 753.58 430.14 C 753.70 435.22, 754.15 437.41, 755.66 440.96 C 757.17 444.51, 758.42 446.21, 761.13 447.90 C 763.84 449.59, 765.77 449.90, 769.21 449.41 C 772.65 448.91, 774.78 448.01, 778.32 445.43 C 781.85 442.85, 783.68 440.90, 786.90 436.50 C 790.12 432.10, 791.64 429.08, 794.40 423.42 C 797.16 417.75, 798.40 414.20, 800.70 408.17 C 803.00 402.14, 804.32 398.57, 805.91 393.29 C 807.50 388.01, 808.18 384.91, 808.66 381.77 C 809.13 378.64, 808.55 377.45, 808.27 377.60 C 808.00 377.75, 807.61 378.72, 807.27 382.52 C 806.92 386.31, 806.97 389.57, 806.55 396.58 C 806.13 403.59, 805.80 408.27, 805.17 417.55 C 804.54 426.83, 804.29 432.45, 803.42 442.99 C 802.54 453.53, 801.97 459.26, 800.79 470.26 C 799.61 481.26, 798.92 487.15, 797.50 497.97 C 796.09 508.80, 795.35 514.42, 793.73 524.41 C 792.11 534.40, 791.27 539.32, 789.41 547.94 C 787.54 556.56, 786.44 560.55, 784.40 567.53 C 782.36 574.51, 781.45 577.63, 779.21 582.82 C 776.98 588.01, 775.64 590.06, 773.23 593.49 C 770.81 596.92, 769.37 598.13, 767.14 599.97 C 764.92 601.82, 763.96 602.17, 762.11 602.70 C 760.25 603.22, 759.49 603.31, 757.87 602.61 C 756.25 601.91, 755.57 601.31, 754.01 599.21 C 752.45 597.10, 751.38 595.86, 750.07 592.09 C 748.76 588.32, 748.25 585.25, 747.47 580.36 C 746.69 575.47, 746.52 572.04, 746.16 567.64 C 745.80 563.25, 746.07 560.25, 745.67 558.41 C 745.27 556.56, 744.54 556.54, 744.16 558.41 C 743.77 560.29, 743.61 563.31, 743.74 567.78 C 743.88 572.25, 744.12 575.71, 744.84 580.76 C 745.55 585.80, 746.02 588.89, 747.31 593.00 C 748.60 597.10, 749.38 598.84, 751.30 601.28 C 753.21 603.72, 754.58 604.41, 756.88 605.20 C 759.18 606.00, 760.41 605.88, 762.81 605.24 C 765.21 604.60, 766.44 604.12, 768.86 601.99 C 771.28 599.87, 772.55 598.33, 774.91 594.62 C 777.27 590.91, 778.53 588.78, 780.68 583.43 C 782.83 578.09, 783.69 574.94, 785.66 567.89 C 787.63 560.84, 788.70 556.84, 790.52 548.18 C 792.34 539.51, 793.16 534.59, 794.75 524.57 C 796.35 514.56, 797.08 508.94, 798.49 498.10 C 799.90 487.26, 800.59 481.37, 801.80 470.37 C 803.01 459.37, 803.58 453.63, 804.54 443.09 C 805.49 432.54, 805.79 426.93, 806.57 417.66 C 807.34 408.38, 807.81 403.72, 808.42 396.72 C 809.02 389.71, 809.58 386.49, 809.60 382.63 C 809.61 378.77, 809.14 377.70, 808.47 377.42 C 807.80 377.14, 807.16 378.18, 806.25 381.24 C 805.34 384.29, 805.37 387.46, 803.92 392.71 C 802.46 397.97, 801.22 401.54, 798.98 407.52 C 796.73 413.49, 795.45 417.04, 792.69 422.57 C 789.92 428.11, 788.32 431.04, 785.15 435.20 C 781.99 439.36, 780.11 441.08, 776.84 443.37 C 773.57 445.67, 771.67 446.22, 768.80 446.68 C 765.93 447.14, 764.71 446.99, 762.50 445.67 C 760.29 444.34, 759.15 443.16, 757.76 440.05 C 756.37 436.93, 755.75 434.90, 755.56 430.08 C 755.37 425.26, 755.67 421.91, 756.83 415.92 C 757.98 409.94, 759.09 406.24, 761.36 400.15 C 763.62 394.07, 765.16 390.66, 768.16 385.50 C 771.16 380.35, 773.04 377.86, 776.34 374.37 C 779.63 370.87, 781.70 369.65, 784.63 368.03 C 787.56 366.42, 788.72 366.27, 791.01 366.30 C 793.29 366.34, 794.26 367.08, 796.04 368.21 C 797.82 369.33, 798.82 370.18, 799.92 371.93 C 801.03 373.69, 801.25 374.72, 801.58 376.99 C 801.91 379.25, 801.74 380.82, 801.57 383.25 C 801.39 385.68, 800.94 387.07, 800.72 389.13 C 800.49 391.20, 800.18 392.58, 800.43 393.55 C 800.69 394.53, 801.24 394.74, 802.00 394.02" style="stroke: black; fill: black;"/><path d="M 936.11,364.03 C 936.27 363.26, 936.07 362.43, 935.54 360.94 C 935.02 359.45, 934.68 358.41, 933.47 356.59 C 932.25 354.76, 931.48 353.39, 929.49 351.81 C 927.49 350.22, 926.41 349.28, 923.50 348.67 C 920.58 348.05, 918.77 347.76, 914.91 348.72 C 911.05 349.69, 908.74 350.49, 904.20 353.49 C 899.66 356.48, 896.92 358.59, 892.21 363.70 C 887.49 368.80, 885.04 372.06, 880.62 379.03 C 876.21 386.00, 873.91 390.15, 870.12 398.55 C 866.33 406.94, 864.50 412.08, 861.67 421.01 C 858.85 429.94, 857.58 434.73, 856.00 443.20 C 854.43 451.67, 853.99 455.95, 853.80 463.36 C 853.62 470.76, 853.98 474.43, 855.08 480.20 C 856.18 485.98, 856.92 488.52, 859.30 492.22 C 861.68 495.93, 863.42 497.19, 866.99 498.73 C 870.55 500.27, 872.78 500.47, 877.14 499.91 C 881.49 499.35, 883.99 498.44, 888.75 495.92 C 893.51 493.41, 896.23 491.54, 900.94 487.33 C 905.66 483.11, 907.88 480.46, 912.33 474.86 C 916.78 469.27, 919.18 465.85, 923.19 459.34 C 927.20 452.84, 929.07 448.83, 932.37 442.34 C 935.67 435.86, 937.28 432.05, 939.69 426.91 C 942.10 421.77, 943.41 419.31, 944.41 416.65 C 945.42 413.98, 944.98 413.12, 944.73 413.60 C 944.48 414.07, 943.80 415.30, 943.18 419.04 C 942.56 422.78, 942.50 426.02, 941.63 432.28 C 940.77 438.54, 940.21 442.78, 938.85 450.33 C 937.50 457.88, 936.53 462.22, 934.86 470.05 C 933.18 477.88, 932.21 482.04, 930.48 489.48 C 928.74 496.92, 927.90 500.75, 926.19 507.26 C 924.48 513.77, 923.66 516.82, 921.95 522.04 C 920.24 527.26, 919.43 529.50, 917.64 533.36 C 915.85 537.22, 914.93 538.82, 913.01 541.34 C 911.09 543.86, 910.31 544.52, 908.04 545.97 C 905.78 547.42, 904.31 547.91, 901.69 548.58 C 899.07 549.24, 897.51 549.23, 894.94 549.30 C 892.37 549.37, 891.07 549.48, 888.82 548.91 C 886.58 548.34, 885.61 548.01, 883.70 546.45 C 881.79 544.90, 880.75 543.74, 879.28 541.13 C 877.80 538.53, 877.07 536.99, 876.33 533.41 C 875.60 529.83, 875.29 527.65, 875.61 523.23 C 875.93 518.81, 876.61 515.70, 877.94 511.32 C 879.26 506.93, 880.68 504.67, 882.25 501.30 C 883.82 497.92, 885.31 495.97, 885.78 494.45 C 886.25 492.94, 885.75 492.58, 884.59 493.73 C 883.44 494.87, 881.84 496.81, 880.02 500.18 C 878.19 503.54, 876.87 505.99, 875.47 510.57 C 874.07 515.14, 873.42 518.36, 873.03 523.03 C 872.64 527.70, 872.85 530.00, 873.52 533.94 C 874.20 537.87, 874.80 539.66, 876.40 542.70 C 878.00 545.74, 879.19 547.24, 881.50 549.14 C 883.81 551.04, 885.23 551.42, 887.94 552.19 C 890.64 552.96, 892.09 553.04, 895.03 552.98 C 897.96 552.92, 899.68 552.79, 902.62 551.89 C 905.57 550.98, 907.25 550.26, 909.74 548.44 C 912.23 546.63, 913.09 545.67, 915.05 542.82 C 917.02 539.97, 917.84 538.26, 919.54 534.21 C 921.25 530.15, 921.98 527.88, 923.60 522.56 C 925.22 517.25, 926.01 514.19, 927.66 507.64 C 929.31 501.09, 930.14 497.26, 931.86 489.80 C 933.58 482.35, 934.54 478.19, 936.27 470.36 C 938.00 462.53, 939.01 458.19, 940.51 450.64 C 942.01 443.09, 942.73 438.86, 943.76 432.60 C 944.79 426.34, 945.38 423.19, 945.68 419.34 C 945.99 415.50, 945.96 414.14, 945.29 413.40 C 944.62 412.66, 943.79 413.11, 942.33 415.65 C 940.86 418.20, 940.25 420.94, 937.98 426.14 C 935.71 431.33, 934.19 435.16, 930.97 441.64 C 927.76 448.12, 925.88 452.11, 921.90 458.55 C 917.92 465.00, 915.51 468.38, 911.08 473.86 C 906.64 479.34, 904.40 481.92, 899.74 485.96 C 895.08 490.00, 892.36 491.73, 887.78 494.07 C 883.20 496.41, 880.84 497.15, 876.84 497.68 C 872.85 498.21, 871.02 498.03, 867.83 496.73 C 864.64 495.43, 863.13 494.55, 860.90 491.18 C 858.66 487.81, 857.80 485.45, 856.65 479.89 C 855.50 474.33, 855.05 470.68, 855.16 463.38 C 855.28 456.09, 855.69 451.83, 857.22 443.42 C 858.75 435.02, 860.01 430.24, 862.83 421.37 C 865.64 412.50, 867.47 407.38, 871.27 399.07 C 875.07 390.75, 877.38 386.64, 881.82 379.80 C 886.26 372.96, 888.75 369.77, 893.46 364.88 C 898.17 359.98, 900.96 358.01, 905.37 355.34 C 909.78 352.66, 912.06 352.13, 915.51 351.48 C 918.97 350.83, 920.38 351.43, 922.66 352.09 C 924.94 352.75, 925.48 353.38, 926.92 354.77 C 928.37 356.16, 928.76 357.46, 929.87 359.04 C 930.99 360.62, 931.54 361.52, 932.51 362.66 C 933.48 363.81, 934.01 364.49, 934.72 364.77 C 935.44 365.04, 935.94 364.79, 936.11 364.03" style="stroke: black; fill: black;"/><path d="M 988.67,422.39 C 988.60 421.50, 988.16 420.32, 987.05 418.97 C 985.94 417.62, 985.08 416.78, 983.10 415.66 C 981.12 414.54, 979.82 413.70, 977.16 413.36 C 974.51 413.03, 972.88 412.82, 969.81 413.99 C 966.75 415.16, 964.98 416.22, 961.82 419.22 C 958.67 422.21, 957.15 424.13, 954.04 428.96 C 950.93 433.79, 949.10 437.13, 946.29 443.38 C 943.47 449.63, 941.94 453.72, 939.95 460.20 C 937.96 466.68, 937.07 470.31, 936.34 475.80 C 935.62 481.28, 935.65 483.75, 936.34 487.63 C 937.03 491.51, 937.73 493.01, 939.80 495.21 C 941.88 497.41, 943.57 498.09, 946.72 498.63 C 949.87 499.17, 951.89 498.95, 955.55 497.92 C 959.20 496.89, 961.32 496.05, 964.99 493.48 C 968.65 490.90, 970.69 489.24, 973.87 485.05 C 977.04 480.85, 978.58 478.02, 980.86 472.50 C 983.14 466.98, 983.86 463.41, 985.28 457.45 C 986.69 451.49, 987.22 448.02, 987.94 442.71 C 988.67 437.39, 988.79 434.83, 988.90 430.89 C 989.01 426.94, 988.74 425.46, 988.48 422.99 C 988.22 420.52, 987.82 419.75, 987.62 418.54 C 987.41 417.34, 987.18 417.25, 987.46 416.96 C 987.74 416.66, 987.92 417.07, 989.02 417.07 C 990.11 417.07, 991.02 417.01, 992.93 416.96 C 994.85 416.91, 996.22 416.80, 998.59 416.83 C 1000.96 416.87, 1002.39 416.81, 1004.78 417.13 C 1007.18 417.45, 1008.50 417.41, 1010.56 418.43 C 1012.61 419.44, 1013.50 420.15, 1015.07 422.20 C 1016.63 424.25, 1017.36 425.34, 1018.37 428.69 C 1019.37 432.04, 1019.79 434.31, 1020.09 438.93 C 1020.38 443.55, 1020.30 446.59, 1019.83 451.78 C 1019.36 456.97, 1018.67 459.98, 1017.75 464.88 C 1016.83 469.79, 1016.19 472.48, 1015.21 476.32 C 1014.23 480.15, 1013.42 481.71, 1012.85 484.07 C 1012.27 486.43, 1012.30 487.35, 1012.34 488.11 C 1012.38 488.88, 1012.52 488.87, 1013.07 487.90 C 1013.61 486.93, 1014.31 486.24, 1015.06 483.28 C 1015.80 480.32, 1015.62 478.03, 1016.79 473.10 C 1017.96 468.17, 1018.65 464.78, 1020.90 458.63 C 1023.15 452.48, 1024.73 448.44, 1028.03 442.36 C 1031.33 436.27, 1033.56 432.94, 1037.40 428.20 C 1041.25 423.46, 1043.52 421.41, 1047.25 418.64 C 1050.99 415.88, 1053.08 415.29, 1056.08 414.37 C 1059.08 413.44, 1060.37 413.50, 1062.26 414.00 C 1064.16 414.50, 1064.39 414.92, 1065.57 416.85 C 1066.75 418.78, 1067.28 420.13, 1068.18 423.65 C 1069.07 427.18, 1069.56 429.61, 1070.05 434.48 C 1070.54 439.36, 1070.64 442.46, 1070.65 448.02 C 1070.66 453.59, 1070.44 456.81, 1070.10 462.30 C 1069.75 467.80, 1069.34 470.78, 1068.93 475.51 C 1068.52 480.25, 1068.19 482.35, 1068.05 486.00 C 1067.90 489.65, 1067.86 491.14, 1068.22 493.77 C 1068.57 496.39, 1069.12 497.52, 1069.82 499.12 C 1070.51 500.73, 1070.98 501.07, 1071.68 501.79 C 1072.38 502.50, 1072.81 502.68, 1073.32 502.70 C 1073.83 502.71, 1074.12 502.15, 1074.21 501.86 C 1074.31 501.57, 1073.96 501.17, 1073.80 501.25 C 1073.63 501.34, 1073.37 502.14, 1073.37 502.30 C 1073.37 502.46, 1073.65 502.21, 1073.79 502.04 C 1073.94 501.87, 1074.15 501.76, 1074.09 501.43 C 1074.04 501.10, 1073.86 501.05, 1073.51 500.39 C 1073.16 499.73, 1072.82 499.56, 1072.36 498.15 C 1071.90 496.74, 1071.55 495.77, 1071.20 493.35 C 1070.86 490.93, 1070.63 489.58, 1070.61 486.04 C 1070.60 482.51, 1070.82 480.40, 1071.13 475.68 C 1071.44 470.96, 1071.83 467.96, 1072.17 462.43 C 1072.50 456.90, 1072.74 453.67, 1072.81 448.04 C 1072.89 442.40, 1072.90 439.28, 1072.54 434.27 C 1072.18 429.25, 1071.93 426.75, 1071.01 422.95 C 1070.09 419.15, 1069.56 417.53, 1067.93 415.27 C 1066.31 413.01, 1065.39 412.31, 1062.87 411.66 C 1060.35 411.01, 1058.71 410.95, 1055.34 412.03 C 1051.98 413.12, 1049.92 414.06, 1046.06 417.07 C 1042.19 420.08, 1039.95 422.21, 1036.03 427.10 C 1032.12 431.99, 1029.89 435.35, 1026.50 441.52 C 1023.10 447.68, 1021.49 451.74, 1019.04 457.92 C 1016.59 464.10, 1015.75 467.50, 1014.24 472.41 C 1012.73 477.32, 1012.08 479.42, 1011.48 482.49 C 1010.89 485.56, 1010.89 486.51, 1011.26 487.76 C 1011.64 489.02, 1012.48 489.33, 1013.37 488.77 C 1014.26 488.21, 1014.85 487.32, 1015.72 484.95 C 1016.59 482.58, 1016.87 480.84, 1017.73 476.91 C 1018.58 472.98, 1019.12 470.28, 1020.00 465.29 C 1020.88 460.31, 1021.60 457.29, 1022.12 451.99 C 1022.64 446.70, 1022.80 443.62, 1022.61 438.80 C 1022.43 433.98, 1022.14 431.63, 1021.18 427.91 C 1020.22 424.18, 1019.61 422.70, 1017.83 420.18 C 1016.04 417.65, 1014.70 416.69, 1012.24 415.28 C 1009.78 413.88, 1008.21 413.76, 1005.51 413.15 C 1002.82 412.54, 1001.37 412.36, 998.76 412.22 C 996.14 412.07, 994.57 412.04, 992.45 412.43 C 990.32 412.82, 989.39 413.44, 988.13 414.16 C 986.86 414.88, 986.66 415.14, 986.12 416.03 C 985.58 416.93, 985.51 417.19, 985.42 418.64 C 985.34 420.09, 985.47 420.81, 985.69 423.26 C 985.90 425.71, 986.46 427.03, 986.50 430.87 C 986.55 434.70, 986.54 437.22, 985.92 442.45 C 985.30 447.68, 984.79 451.15, 983.41 457.01 C 982.03 462.87, 981.30 466.41, 979.04 471.75 C 976.79 477.09, 975.24 479.79, 972.14 483.71 C 969.04 487.63, 967.02 489.08, 963.55 491.36 C 960.07 493.64, 958.05 494.22, 954.77 495.09 C 951.50 495.96, 949.79 496.04, 947.16 495.71 C 944.53 495.38, 943.35 495.14, 941.62 493.44 C 939.88 491.74, 939.17 490.71, 938.49 487.23 C 937.81 483.75, 937.59 481.33, 938.22 476.03 C 938.85 470.73, 939.70 467.10, 941.65 460.72 C 943.60 454.34, 945.13 450.26, 947.96 444.14 C 950.79 438.03, 952.68 434.72, 955.81 430.13 C 958.93 425.53, 960.56 423.76, 963.59 421.18 C 966.62 418.60, 968.35 418.05, 970.95 417.24 C 973.55 416.42, 974.55 416.72, 976.59 417.11 C 978.62 417.50, 979.51 418.30, 981.13 419.19 C 982.75 420.07, 983.42 420.67, 984.67 421.52 C 985.92 422.38, 986.58 423.27, 987.38 423.44 C 988.18 423.62, 988.73 423.29, 988.67 422.39" style="stroke: black; fill: black;"/><path d="M 1136.73,419.35 C 1136.31 418.74, 1135.63 418.23, 1134.17 417.80 C 1132.72 417.37, 1131.83 416.86, 1129.47 417.20 C 1127.10 417.54, 1125.29 417.67, 1122.35 419.51 C 1119.41 421.34, 1117.79 423.05, 1114.76 426.39 C 1111.73 429.73, 1110.05 431.71, 1107.19 436.21 C 1104.34 440.72, 1102.75 443.77, 1100.51 448.93 C 1098.26 454.08, 1097.00 457.16, 1095.96 462.00 C 1094.92 466.83, 1094.72 469.41, 1095.30 473.10 C 1095.89 476.79, 1096.76 478.47, 1098.87 480.45 C 1100.98 482.44, 1102.83 482.96, 1105.86 483.03 C 1108.90 483.10, 1110.85 482.43, 1114.05 480.79 C 1117.26 479.15, 1118.92 477.83, 1121.89 474.81 C 1124.85 471.79, 1126.37 469.66, 1128.87 465.69 C 1131.38 461.72, 1132.56 459.18, 1134.40 454.96 C 1136.25 450.75, 1136.98 448.28, 1138.09 444.62 C 1139.20 440.97, 1139.77 438.98, 1139.94 436.69 C 1140.11 434.40, 1139.43 433.32, 1138.95 433.17 C 1138.46 433.01, 1137.62 433.60, 1137.50 435.92 C 1137.39 438.23, 1137.86 440.14, 1138.37 444.74 C 1138.88 449.35, 1139.31 452.57, 1140.05 458.96 C 1140.80 465.35, 1141.19 469.40, 1142.08 476.71 C 1142.97 484.02, 1143.67 488.12, 1144.52 495.51 C 1145.36 502.91, 1145.89 506.76, 1146.32 513.67 C 1146.74 520.58, 1146.98 523.85, 1146.65 530.05 C 1146.33 536.24, 1146.02 539.27, 1144.68 544.65 C 1143.33 550.03, 1142.18 552.54, 1139.93 556.96 C 1137.68 561.38, 1136.32 563.41, 1133.41 566.75 C 1130.50 570.08, 1128.78 571.49, 1125.38 573.64 C 1121.98 575.79, 1120.13 576.51, 1116.41 577.49 C 1112.69 578.47, 1110.69 578.75, 1106.77 578.53 C 1102.84 578.31, 1100.73 577.80, 1096.79 576.39 C 1092.84 574.99, 1090.53 573.80, 1087.03 571.51 C 1083.53 569.22, 1081.76 567.92, 1079.27 564.95 C 1076.77 561.98, 1075.72 560.24, 1074.56 556.67 C 1073.39 553.11, 1073.08 551.38, 1073.44 547.13 C 1073.81 542.88, 1074.36 540.33, 1076.39 535.45 C 1078.42 530.57, 1079.93 527.72, 1083.59 522.73 C 1087.25 517.74, 1089.65 515.07, 1094.69 510.52 C 1099.73 505.96, 1102.88 503.68, 1108.80 499.97 C 1114.73 496.27, 1118.58 494.59, 1124.32 491.99 C 1130.07 489.39, 1133.21 488.61, 1137.53 486.97 C 1141.85 485.33, 1144.31 484.66, 1145.91 483.79 C 1147.50 482.92, 1147.30 482.32, 1145.51 482.63 C 1143.71 482.93, 1141.29 483.74, 1136.91 485.30 C 1132.53 486.85, 1129.40 487.74, 1123.60 490.41 C 1117.81 493.07, 1113.95 494.83, 1107.95 498.61 C 1101.94 502.39, 1098.75 504.68, 1093.59 509.29 C 1088.43 513.90, 1085.95 516.57, 1082.13 521.64 C 1078.32 526.71, 1076.70 529.59, 1074.51 534.65 C 1072.32 539.70, 1071.64 542.37, 1071.19 546.92 C 1070.75 551.47, 1071.03 553.48, 1072.26 557.41 C 1073.49 561.33, 1074.67 563.31, 1077.35 566.55 C 1080.03 569.78, 1081.94 571.16, 1085.66 573.59 C 1089.38 576.03, 1091.76 577.26, 1095.96 578.74 C 1100.15 580.22, 1102.42 580.77, 1106.64 580.99 C 1110.85 581.21, 1113.04 580.92, 1117.04 579.84 C 1121.04 578.76, 1123.03 577.92, 1126.62 575.58 C 1130.22 573.24, 1132.02 571.69, 1135.03 568.14 C 1138.03 564.59, 1139.39 562.44, 1141.66 557.83 C 1143.92 553.21, 1145.05 550.60, 1146.37 545.06 C 1147.69 539.52, 1147.95 536.42, 1148.25 530.13 C 1148.54 523.83, 1148.27 520.53, 1147.82 513.58 C 1147.38 506.62, 1146.84 502.76, 1146.03 495.34 C 1145.21 487.93, 1144.52 483.84, 1143.74 476.52 C 1142.96 469.20, 1142.65 465.16, 1142.13 458.76 C 1141.61 452.35, 1141.48 449.10, 1141.14 444.49 C 1140.79 439.88, 1140.86 437.98, 1140.39 435.69 C 1139.92 433.41, 1139.43 432.96, 1138.78 433.05 C 1138.12 433.14, 1137.81 433.99, 1137.12 436.14 C 1136.42 438.29, 1136.33 440.25, 1135.32 443.81 C 1134.31 447.38, 1133.78 449.86, 1132.06 453.96 C 1130.34 458.06, 1129.15 460.54, 1126.71 464.31 C 1124.28 468.09, 1122.73 470.09, 1119.91 472.83 C 1117.10 475.58, 1115.46 476.60, 1112.64 478.03 C 1109.83 479.46, 1108.25 479.88, 1105.84 479.98 C 1103.44 480.09, 1102.23 480.01, 1100.62 478.56 C 1099.00 477.11, 1098.26 475.94, 1097.77 472.72 C 1097.28 469.50, 1097.22 467.05, 1098.16 462.46 C 1099.11 457.88, 1100.29 454.79, 1102.49 449.79 C 1104.68 444.79, 1106.28 441.77, 1109.13 437.47 C 1111.99 433.17, 1113.75 431.27, 1116.76 428.31 C 1119.78 425.35, 1121.54 424.13, 1124.21 422.67 C 1126.88 421.21, 1128.19 421.37, 1130.09 421.02 C 1132.00 420.66, 1132.48 420.91, 1133.72 420.88 C 1134.96 420.85, 1135.68 421.16, 1136.28 420.85 C 1136.88 420.55, 1137.15 419.96, 1136.73 419.35" style="stroke: black; fill: black;"/></svg>